<svg xmlns="http://www.w3.org/2000/svg" width="148.242" height="11.741" viewBox="0 0 148.242 11.741">
  <g id="Group_655" data-name="Group 655" transform="translate(0 3)">
    <path id="Path_2" data-name="Path 2" d="M0,0C4.945,0,4.945,5.741,9.876,5.741S14.822,0,19.753,0,24.7,5.741,29.629,5.741,34.574,0,39.506,0s4.945,5.741,9.876,5.741S54.327,0,59.259,0s4.945,5.741,9.89,5.741S74.094,0,79.025,0s4.945,5.741,9.89,5.741S93.86,0,98.805,0s4.945,5.741,9.876,5.741S113.627,0,118.572,0s4.945,5.741,9.89,5.741S133.407,0,138.352,0s4.945,5.741,9.89,5.741" transform="translate(0 0)" fill="#000000" stroke="#000000" stroke-width="6"/>
  </g>
</svg>
