<svg xmlns="http://www.w3.org/2000/svg" xmlns:xlink="http://www.w3.org/1999/xlink" width="59" height="60" viewBox="0 0 59 60">
  <defs>
    <radialGradient id="radial-gradient" cx="0.5" cy="0.5" r="0.5" gradientUnits="objectBoundingBox">
      <stop offset="0" stop-color="#d3d9f4"/>
      <stop offset="1" stop-color="#d3d9f4"/>
    </radialGradient>
  </defs>
  <g id="Group_632" data-name="Group 632" transform="translate(174 821.094) rotate(180)">
    <rect id="Rectangle_117" data-name="Rectangle 117" width="59" height="60" transform="translate(115 761.094)" fill="url(#radial-gradient)"/>
    <path id="Icon_awesome-chevron-right" data-name="Icon awesome-chevron-right" d="M25.887,24.5,7.842,42.542a2.228,2.228,0,0,1-3.151,0l-2.1-2.1a2.228,2.228,0,0,1,0-3.148l14.3-14.368L2.582,8.553a2.228,2.228,0,0,1,0-3.148l2.1-2.1a2.228,2.228,0,0,1,3.151,0L25.887,21.346A2.228,2.228,0,0,1,25.887,24.5Z" transform="translate(131.91 767.879)"/>
  </g>
</svg>