<svg xmlns="http://www.w3.org/2000/svg" width="1292" height="601" viewBox="0 0 1292 601">
  <g id="Group_650" data-name="Group 650" opacity="0.586">
    <g id="Group_615" data-name="Group 615" transform="translate(0)" opacity="0.253">
      <g id="pattern_5_" data-name="pattern (5)">
        <rect id="Rectangle_102" data-name="Rectangle 102" width="647" height="601"/>
        <path id="Path_8" data-name="Path 8" d="M321.927,0a9.8,9.8,0,0,1-3.154,2.224c-3.9,2.073-15.248,6.52-13.363,12.71,2.406,7.392,17.232-2.4,23.409-.361,6.275,2.073,8.323,10.667,14.468,2.764,2.959-3.936,4.064-10.457,4.454-15.264L347.547,0ZM532.283,0c0,1.532.748,3.095,2.438,4.988,2.764,2.915,7.055,7.212,10.729,8.053a24.91,24.91,0,0,0,14.143-.331c2.211-.691,3.9-2.4,5.95-3.456,2.048-1.2,6.307-1.863,7.608-3.756.91-1.382.748-3.425.358-5.5Zm96.009,8.594c-5.007.15-13.753,7.362-16.354,11.148-1.626,2.584-6.112,11.508-5.722,14.243.553,4.808,16.126,22.506,21.328,23.678,6.5,1.563,8.908-3.906,12.257-8.714,3.9-5.529,4.454-7.933,5.4-14.123.91-6.49,2.6-9.075-3.154-14.062-2.6-2.224-10.794-12.53-13.753-12.169ZM573.7,33.293a3.444,3.444,0,1,0,0,6.881A3.444,3.444,0,1,0,573.7,33.293ZM392.512,58.173h-.975a12.623,12.623,0,0,0-3.316,1.893,29.455,29.455,0,0,1-3.9,5.859c-2.6,2.915-10.6,6.01-10.209,10.457.163,2.915,3.349,5.138,7.25,7.212a23.849,23.849,0,0,1,9.624,4.117l1.138.511a2.382,2.382,0,0,0,1.105.18c6.86,1.022,19.117-9.285,18.207-16.136-.715-4.507-13.655-13.522-18.922-14.093Zm-357.475.361c-5.2,0-10.729,2.584-15.021,4.3-.943.331-1.853.841-2.8,1.2a5.36,5.36,0,0,0-2.406,3.606c-.2.691.2,1.382,0,2.224-.2,1.532-1.658,3.275-1.658,4.808,0,2.915,6.5,4.627,10.729,5.138,4.682.541,9.494-.841,13.753-1.863,3.706-.9,8.193-1.743,11.509-3.095,4.1-1.713,4.1-3.966,3.739-6.881a14.956,14.956,0,0,0-1.5-4.627c-.39-.18-.553-.511-.943-.691-2.764-1.893-11.119-4.117-15.411-4.117ZM93.169,85.667c-3.9,0-5.4,5.138-8,7.542-4.454,4.3-7.413,7.031-2.6,12.35,2.8,2.915,7.055,7.212,10.794,8.083a26.3,26.3,0,0,0,14.11-.361c2.211-.661,3.9-2.4,5.917-3.425,2.048-1.2,6.34-1.893,7.608-3.786,1.886-2.915-.715-9.435-1.3-12.35-2.211-9.8-18.207-7.212-26.53-8.053ZM482.117,87.59c-6.112.841-3.154,16.767-2.178,18.99,5.755.18,6.112-4.958,6.307-7.722.2-1.713,1.5-9.435-.91-10.637a5.907,5.907,0,0,0-3.251-.631Zm-261.3,27.644c-4.844-.18-11.477,2.254-13.265,5.108-2.243,3.425-1.3,8.413-1.3,12.169,4.1.361,10.209-5.649,13.558-7.542,3.706-2.073,10.014-4.627,5.007-8.594a7.225,7.225,0,0,0-4-1.142Zm-86.646,2.855a15.606,15.606,0,0,0-2.926.18c-13.363,1.893-36.577,11.689-29.164,27.133,8.551,17.488,29.521,11.478,45.322,10.126,8.356-.691,19.28-3.606,25.782-8.594,8.356-6.52-.163-7.212,1.3-13.041q-9.639-4.822-19.67-8.924c-5.852-2.855-13.688-6.761-20.645-6.911Zm108.527,33.474c-3.576-.21-8.453,2.314-9.721,5.168-1.463,3.425-.91,8.564-.91,12.35,2.959.331,7.413-5.829,10.014-7.722,2.6-2.073,7.25-4.627,3.544-8.594a4.119,4.119,0,0,0-2.926-1.2Zm131.773,22.506c-2.959.331-3.511,3.065-4.259,5.649-1.138,3.966-1.853,7.9-2.8,11.839-1.5,5.5-.748,14.934,3.154,19.411,2.8,3.095,6.145,5.318,9.1,8.053,2.8,2.764,5.4,6.7,8.551,9.1,2.764,2.073,7.218,2.915,10.567,4.3,2.991,1.2,8,3.606,11.152,3.095,17.459-2.4,4.454-30.919-.748-38.461,0-.18-4.812-8.053-5.755-8.924-2.8-2.734-6.307-2.915-10.209-3.786a22.255,22.255,0,0,1-9.1-4.447C382.271,178.515,377.264,173.888,374.468,174.068Zm-61.449,8.413a3.431,3.431,0,1,0,0,6.851A3.431,3.431,0,1,0,313.019,182.482Zm220.37,8.2a3.477,3.477,0,0,0-3.121,2.4c-.585,2.1-.943,4.657.162,6.731a5.688,5.688,0,0,0,4.844,2.554c3.706,0,7.25-3.425,6.112-7.031-.715-2.4-3.154-3.606-5.527-4.3a2.507,2.507,0,0,0-.975-.331,5.166,5.166,0,0,0-1.5-.03Zm-247.875.18a3.746,3.746,0,0,0-3.706,3.456,12.383,12.383,0,0,0,.748,5.138,3.924,3.924,0,0,0,4.649,2.4c1.853-.511,3.349-2.4,2.6-4.3-.2-.691-.39-1.2-.553-1.893v-1.352c.163-1.893-1.853-3.606-3.739-3.456Zm57.937,31.07a3.444,3.444,0,1,0,0,6.881A3.444,3.444,0,1,0,343.451,221.935Zm224.857,16.8c-4.227-.06-7.868,1.082-8.713,5.2-.748,3.425,2.211,7.362,3.706,10.276,1.691,3.786,3.154,7.752,7.25,10.306,1.5-1.022,3.706-1.2,5.4-2.043,1.105-.511,2.211-1.562,3.316-2.073,4.292-2.043,5.2-1.713,7.055-5.829a27.755,27.755,0,0,0,1.5-4.808c.39-1.022,1.853-3.606,1.5-4.627-.553-2.764-6.893-4.3-9.1-4.657-2.959-.511-7.705-1.713-11.9-1.743Zm-390.67,59.044a12.4,12.4,0,0,0-5.007.9c-4.064,1.713-5.95,5.5-9.266,7.9-2.438,1.713-4.649,2.224-7.445,3.425-8.161,3.425-5.95,10.126-1.3,16.316,3.349,4.3,10.046,7.211,15.411,9.1,5.755,1.713,11.7,5.649,17.849,3.606,2.926-1.052,10.729-7.392,11.867-10.156,1.105-2.7-.358-5.649-.748-8.413-.748-3.906-.358-7.722-.2-11.839-.358,0,0-3.936-.163-4.447-1.3-3.095-2.048-2.584-5.95-3.095-5.007-.631-10.014-3.215-15.053-3.305ZM38.158,323.017c-4.584.361-10.989,3.035-14.078,3.305-5.365.511-10.924-1.382-15.606,2.043-7.023,7.722-11.867,19.05-3.316,27.825,7.966,8.053,24.71,5.138,31.212-3.786,3.121-4.447,11.119-25.751,5.527-28.846a6.6,6.6,0,0,0-3.771-.541Zm592.9,17.007a12.782,12.782,0,0,0-3.511.721c-8.161,2.7-12.615,20.583-8.713,27.1,3.706,6.01,12.257,9.1,18.37,12.38,4.1-5.349,0-19.081-.163-25.421C636.876,348.948,637.982,339.783,631.056,340.024Zm-76.209,25.751a4.506,4.506,0,0,0-2.666.9,14.8,14.8,0,0,0-3.544,3.906c-1.3,1.743-.943,3.966.943,4.808a4.2,4.2,0,0,0,5.2-1.022c.325-.511.715-1.022,1.105-1.713,0-.18.163-.18.358-.331a3.935,3.935,0,0,1,.943-.691,3.305,3.305,0,0,0,.162-4.808,3.778,3.778,0,0,0-2.5-1.052Zm-93.408,15.9c-1.528-.06-3.056-.03-4.617,0l-6.21.27c-3.739,0-9.3-.871-11.9,2.4-1.853,2.554-.2,10.276-.2,13.522-.163,7.211-4.227,21.334,1.886,27.494,2.926,2.915,7.966,2.915,12.225,2.915,7.25.18,9.1,0,14.5,4.117-1.658,3.095-5.755.871-7.25,3.786,4.649,5.138,17.1-5.138,21.913-6.7,8.356-2.734,12.615-4.808,16.711-12.53,5.2-9.435-3.9-11-9.3-17.338-4.227-5.319-7.413-12.019-14.305-15.114a33.808,33.808,0,0,0-13.46-2.824Zm76.632,17.548c-2.731-.09-5.4,2.975-3.186,5.529,2.8,3.456,8.746-.841,5.787-4.267a3.471,3.471,0,0,0-2.6-1.262ZM365.592,410.4c-.228-.15-.78,0-2.438.361-2.243.361-4.649.361-6.7,1.052-1.5,3.756-3.706,9.255,1.105,11.659,2.6,1.022,10.957,1.893,12.257-1.382.585-1.2-.91-3.425-1.463-4.447-.943-1.893-1.3-4.3-2.243-5.829-.358-.871-.293-1.292-.52-1.412Zm58.36,39.754c-5.365-.12-12.29,2.163-16.614,1.653-5.95,0-9.3-.18-10.014,5.649-.585,4.117.91,12.53,2.211,16.647A14.309,14.309,0,0,0,409,484.585c3.154,1.382,10.4,5.138,13.753,3.936,8.161-2.915,8.908-21.785,8.713-28.305-.163-3.786,1.3-6.37-2.764-8.924a9.69,9.69,0,0,0-4.747-1.142Zm197.969,1.983h-1.04c-3.349.511-7.445.691-9.494,3.606a5.871,5.871,0,0,0-.748,4.627c.2,1.2,1.138,2.764,1.138,4.117a3.563,3.563,0,0,0,4.259,3.786c5.2-1.022,12.062-6.851,11.347-12.169a3.3,3.3,0,0,0-3.186-2.764,3.519,3.519,0,0,0-2.276-1.2ZM177.8,460.1c-3.089,0-5.852,1.322-9.071,1.8-4.649.721-9.461,2.4-13.915,2.764-5.2.511-10.762-1.022-15.964-.331-8.746,1.2-15.248,9.615-16.354,17.488-1.853,12.38,5.2,13.732,15.606,16.647,5.755,1.743,8.551.691,14.11,1.052,4.1.18,6.86,3.095,10.957,3.606,5.4.691,13.915-3.426,16.711-7.722,2.959-4.808,1.105-12.891,10.209-11.508,7.8-.331,6.7-10.126,3.154-14.6-2.211-2.734-8.713-7.722-12.257-8.744A10.315,10.315,0,0,0,177.8,460.1Zm75.039,11.328c-6.99.331-18.532,8.113-18.012,12.47.39,4.117,9.1,9.946,12.257,12.35,2.6,1.893,6.7,7.031,9.851,7.392.2-5.5,1.853-8.744,1.3-14.062-.358-3.966-5.007-12.891-.553-15.625-.715-1.953-2.536-2.644-4.877-2.524Zm54.426,23.287a5.28,5.28,0,0,0-1.138.18,3.148,3.148,0,0,0-2.6,1.022c-2.926,3.095-4.812,7.542-3.511,11.659,1.658,4.988,6.7,6.37,11.7,5.5a3.7,3.7,0,0,0,2.764-3.245,18.65,18.65,0,0,0-4.259-14.093,3.7,3.7,0,0,0-2.926-1.022Zm-260.1,4.357a99.4,99.4,0,0,0-11.542.451c-6.145,7.722-3.349,17.518-2.048,27.1.163,2.073.553,4.117.91,6.19a35.155,35.155,0,0,0,1.138,3.786c1.3,3.1,1.463,9.075,5.365,10.276,5.4,1.743,6.7-3.606,8.746-6.52,5.007-7.212,17.979-35.006,6.112-40.325a29.435,29.435,0,0,0-8.648-.962Zm339.366,6.791c-2.211.18-4.259.18-5.365.691-13,5.138-13.558,14.6-16.354,25.931C361.3,546,357.4,554.266,369.1,557.361c4.617,1.2,13.525,4.988,18.922.511,3.706-10.126,8.161-20.072,11.7-30.379.748-2.4,3.706-9.255,3.511-11.508a6.286,6.286,0,0,0-2.048-4.447,17.853,17.853,0,0,0-5.755-.691c-4.064.331-7.8-.871-8.908-4.988Zm191.6,49.73c-3.511-.21-8.356,2.314-9.754,5.168-1.5,3.425-.943,8.564-.943,12.35,2.991.18,7.641-5.829,10.046-7.722,2.6-2.073,7.25-4.627,3.511-8.594A4.08,4.08,0,0,0,578.126,555.588Zm-372.2-1.292c-3.609.06-7.185.661-8.388,1.683-1.691,1.382-.975,4.3-2.6,5.679-1.5,1.382-5.592,1.532-7.445,2.043-3.349-1.713-1.658.541-2.6,1.382-.91.871-1.853,4.117-3.9,6.01-3.511,3.095-11.119,6.851-1.853,9.435,2.8.691,5.755-.331,8.551.361,3.154.841,6.5,3.245,9.1,4.958,4.454,2.915,10.209,9.435,14.858,3.966,2.764-3.275,2.959-13.4,3.9-17.518.715-4.3,3.316-13.221-.943-16.466C213.205,554.687,209.531,554.236,205.923,554.3Zm409.333,6.4c-5.072.391-11.282,9.315-13.525,11.779-3.316,3.756-20.028,14.573-15.931,19.892,7.575-7.872,18.532-3.936,26.335-9.615,3.349-2.4,9.461-15.926,7.608-19.051C618.506,561.388,616.946,560.576,615.255,560.7Zm-70.129,25.331c-3.9,0-5.4,5.138-8,7.542-2.959,2.764-5.2,4.988-5.007,7.392h41.226a67.907,67.907,0,0,0-1.691-6.881c-2.211-9.766-18.207-7.211-26.53-8.053Zm-208.405,6.01a11.7,11.7,0,0,0-4.942,1.2c-3.739,1.713-6.5,5.138-9.851,7.722h25.815l-.2-1.893s-2.959-4.117-3.154-4.447A12.089,12.089,0,0,0,336.721,592.037Z" transform="translate(0 0)" fill="#d2d8f4"/>
        <path id="Path_9" data-name="Path 9" d="M2.944,0C5.726,1.893,10,2.584,12.94,3.936c2.944,1.2,7.926,3.606,11.1,3.095A9.215,9.215,0,0,0,32.35,0Zm589.74,0a12.028,12.028,0,0,0-7.764,5.5c-2.426,4.447.162,8.744,4.432,11.328a4.193,4.193,0,0,0,4.432-.511A17.956,17.956,0,0,0,601,3.425,3.218,3.218,0,0,0,598.766.361L598.41,0ZM15.884,12.921C10.934,13.4,7.8,20.433,11.1,23.347c2.75-.331,4.432,1.713,6.632,2.734,3.526,1.893,7.408,3.606,10.9,5.319,7.6,3.966,15.722-.15,9.252-6.671-4.076-4.117-12.552-7.9-18.31-11a6.065,6.065,0,0,0-3.656-.811Zm76.184,8.954c-7.246.3-11,11.869-5.758,17.428,3.882-.331,6.826,3.275,9.964,5.319,5.37,3.606,11.1,6.7,16.628,10.306,11.646,7.392,23.1,1.382,12.746-10.457-6.47-7.722-19.572-14.934-28.08-20.793a9.126,9.126,0,0,0-5.5-1.8ZM591.649,64.543c-6.373-.06-13.587,2.1-15.787,5.829-2.588,4.3,2.944,20.433,7.182,22.145a8.948,8.948,0,0,0,3.882.18,33.564,33.564,0,0,1,6.858-2.584c3.882-.841,12.2.871,14.784-3.095,1.65-2.4.55-6.01-1.488-9.766A20.708,20.708,0,0,1,601.9,68.66a1.257,1.257,0,0,0-.356-.691c-.194-.331-.55-.511-.744-.841-1.876-1.743-5.37-2.584-9.155-2.614Zm-372.09,7.392c-2.232-.361-5.92,2.915-7.6,3.936-2.944,2.073-7.182,3.786-9.77,5.649-2.782,1.893-3.332.18-.938,4.988,1.682,3.275,2.394,7.061,4.626,10.126,7.376.691,18.116,2.254,20.7-6.34,1.294-4.3-.55-17.518-7.02-18.359Zm55.06,6.851a3.445,3.445,0,1,0,0,6.881A3.445,3.445,0,1,0,274.619,78.786Zm63.729,3.786c-3.882-.18-7.376,2.584-7.182,6.34.194,3.425,3.882,6.01,7.02,7.031,4.27,1.2,8.12-1.352,7.958-5.469a2.839,2.839,0,0,0-.388-1.382,7.381,7.381,0,0,0-7.376-6.52ZM304.931,94.231a3.688,3.688,0,0,0-3.688,3.456,11.718,11.718,0,0,0,.712,5.108,3.906,3.906,0,0,0,4.626,2.434c1.844-.511,3.332-2.4,2.588-4.3l-.55-1.893V97.686c.194-1.743-1.844-3.456-3.688-3.456Zm52.407,9.856c-3.235-.15-7.7,1.563-8.8,3.365-1.488,2.224-.938,5.679-.938,8.083,2.588.15,6.858-3.786,9.058-4.988,2.426-1.382,6.664-3.095,3.332-5.679A4.555,4.555,0,0,0,357.338,104.086ZM199.794,106.43a3.432,3.432,0,1,0,0,6.851A3.432,3.432,0,1,0,199.794,106.43ZM31.25,116.556a3.694,3.694,0,0,0-3.72,3.425,12.656,12.656,0,0,0,.744,5.168,3.9,3.9,0,0,0,4.626,2.4c1.844-.541,3.332-2.4,2.588-4.3-.194-.691-.388-1.2-.55-1.893v-1.382A3.469,3.469,0,0,0,31.25,116.556Zm540.73.511c-.938,3.606,4.206,10.306,5.5,13.732,1.521,3.786,2.976,9.946,8.152,6.01,3.882-2.915,2.426-13.552-1.1-16.316C581.2,117.939,575.862,117.758,571.98,117.067ZM13.943,136.148a7.938,7.938,0,0,0-4.335.992c-7.57,5.318-6.664,20.433-7.57,27.644-1.682,13.4,6.826,17.849,17.922,9.285,6.082-4.808,6.276-8.413,9.8-15.475,2.2-4.447,5.888-8.413,7.376-13.221C34.582,141.2,21.675,136,13.943,136.148Zm305.934,4.627c-7.408-.3-18.278,5.709-24.392,6.01-4.982-.18-11.969,2.224-15.14,5.829-4.076,4.627-1.844,10.637,2.232,15.445,8.12,10.126,20.316,4.958,30.28.511,7.958-3.606,18.5-17.157,12.94-24.91a7.185,7.185,0,0,0-5.92-2.885Zm85.857,4.958c-3.461.18-6.5,1.683-6.923,5.5-.388,3.245,1.1,6.34,1.844,9.435.356,1.893,2.782,2.915,4.626,2.4,2.944-.691,4.238-3.786,5.176-6.19a37.316,37.316,0,0,0,2.038-7.542,4.167,4.167,0,0,0-2.232-2.734,4.532,4.532,0,0,0-1.294-.691,17.707,17.707,0,0,0-3.235-.18ZM581.1,160.246a13.228,13.228,0,0,0-4.853.421c-4.27,2.073-6.7,9.435-5.952,13.732.744,4.477,5.92,10.306,7.958,14.243,3.138,6.37,6.47,13.4,10.158,19.742,2.782,4.808,4.82,8.233,9.252,10.126,7.57,2.915,16.984,3.095,23.454-.331,4.27-2.073,6.47-7.542,8.152-13.041a65.632,65.632,0,0,0,1.456-27.464c-1.65-13.221-18.278-12.2-29.018-14.784a147.9,147.9,0,0,0-20.607-2.644ZM450.183,174.579a3.429,3.429,0,1,0,0,6.851A3.429,3.429,0,1,0,450.183,174.579ZM30.474,192.217l-.906.03c-4.432.361-9.058,2.224-11.1,6.19-2.394,4.447.194,8.744,4.432,11.328a4.249,4.249,0,0,0,4.464-.511,17.95,17.95,0,0,0,7.182-12.891,3.177,3.177,0,0,0-2.2-3.245,2.522,2.522,0,0,0-1.876-.9Zm271.578,18.029c-6.341-.03-13.587,2.1-15.787,5.859-2.588,4.3,2.944,20.433,7.214,22.145a8.879,8.879,0,0,0,3.882.18,32.615,32.615,0,0,1,6.826-2.584c4.076-.691,12.39,1.052,14.978-2.734,1.65-2.4.55-6.01-1.488-9.8a20.685,20.685,0,0,1-5.176-8.564l-.55-1.052c-.194-.331-.55-.511-.744-.841-1.876-1.743-5.338-2.584-9.155-2.614Zm164.888,6.07a3.866,3.866,0,0,0-1.779.661,3.267,3.267,0,0,0-3.138,1.713c-2.038,3.425-5.176,7.542-1.132,10.817,2.588,2.043,6.308,3.425,9.446,4.447a4.069,4.069,0,0,0,4.238-1.533c3.138-4.988-.55-12.891-5.532-15.445a3.192,3.192,0,0,0-2.1-.661ZM246.7,216.8c-5.176,0-10.676,4.117-14.946,6.7l-2.782,2.043a9.449,9.449,0,0,0-2.394,5.5c-.194,1.052.162,2.254,0,3.456-.194,2.4-1.682,4.958-1.682,7.512,0,4.507,6.47,7.212,10.74,7.933,4.626.661,9.382-1.382,13.652-3.095,3.72-1.382,8.152-2.584,11.452-4.657,4.076-2.7,4.076-6.16,3.72-10.637a34.9,34.9,0,0,0-1.488-7.362c-.356-.361-.55-.691-.906-1.022A28.765,28.765,0,0,0,246.7,216.8Zm-141.952,12.83a3.572,3.572,0,0,0-3.106,2.434c-.55,2.073-.938,4.657.194,6.7.712,1.743,2.588,2.584,4.788,2.584,3.72,0,7.214-3.425,6.114-7.031-.744-2.4-3.138-3.606-5.564-4.3a1.858,1.858,0,0,0-.906-.331,5.114,5.114,0,0,0-1.52-.06Zm260.417,15.835c-2.2.18-4.238.18-5.37.691-12.94,5.138-13.49,14.573-16.24,25.931-3.526,13.522-7.214,21.785,4.432,24.88,4.432,1.022,13.3,4.808,18.666.511,3.688-10.126,8.12-20.072,11.646-30.379.744-2.4,3.688-9.285,3.494-11.508a6.3,6.3,0,0,0-2.038-4.447,18,18,0,0,0-5.726-.691c-4.044.331-7.764-.871-8.864-4.988Zm-339.093,4.3a3.445,3.445,0,1,0,0,6.881,3.458,3.458,0,1,0,0-6.911Zm263.491,1.322a3.558,3.558,0,0,0-3.106,2.464c-.55,2.043-.938,4.627.162,6.671a5.384,5.384,0,0,0,4.82,2.764c3.688,0,7.214-3.425,6.082-7.031-.906-2.4-3.138-3.606-5.532-4.477a1.857,1.857,0,0,0-.938-.33,5.148,5.148,0,0,0-1.488-.06Zm-215.58,2.795a3.445,3.445,0,1,0,0,6.881A3.445,3.445,0,1,0,73.984,253.876Zm42.055,2.945c-6.729.12-8.54,4.808-3.138,11.478,3.526,4.627,6.47,5.138,12.228,8.233,3.494,1.893,6.632,4.808,10.514,6.34,4.432-1.532,10.9-13.221,8.12-17.338-3.882-5.469-16.434-6.671-22.321-8.053a21.991,21.991,0,0,0-5.435-.661Zm496.055,5.889a4.109,4.109,0,0,0-2.426.6c-4.432,2.584-.194,8.924,4.238,6.37C617.529,267.578,615.394,262.98,612.094,262.71ZM280.022,275.27c-7.117.3-14.752,2.764-20.93,3.666-5.37.871-10.352-.331-12.746,4.988-1.488,3.425,2.782,12.35,3.332,13.041,4.626,4.117,10.158,2.224,15.69.331,7.958-2.915,19.41-6.851,25.33-13.732,1.294-2.224,1.65-4.447-.194-6.52a19.4,19.4,0,0,0-7.473-1.773Q281.527,275.2,280.022,275.27Zm-69.714,1.623h-.841a3.186,3.186,0,0,0-2.847,2.734c-.938,4.3,6.47,5.5,7.182,1.2.518-2.344-1.456-3.816-3.494-3.936Zm351.483,1.472c-3.235-.18-8.346.6-10.158.751-6.632.15-4.982,1.713-7.57,5.5-2.588,3.606-7.02,5.318-9.414,9.615-8.152.511-.194,5.319,1.456,7.512,1.876,2.4.744,7.572,4.27,5.709.55-.691,2.944-4.147,3.882-4.808,1.456-1.2,3.494-1.743,4.982-3.095,3.138-2.915,7.57-6.19,10.352-9.1,1.65-1.713,7.57-9.1,4.626-11.508a5.08,5.08,0,0,0-2.426-.571Zm-140.4,1.833a3.968,3.968,0,0,0-.874.06,3.134,3.134,0,0,0-2.879,2.614c-.906,4.477,6.47,5.679,7.214,1.2.518-2.344-1.456-3.756-3.494-3.876Zm-24.974,5.619c-.938,3.606,4.238,10.276,5.532,13.732,1.488,3.606,2.944,9.916,8.12,6.01,3.882-2.945,2.426-13.582-1.1-16.316-3.332-2.584-8.67-2.734-12.552-3.426Zm-267.211,9.135c-7.57.12-14.04,5.228-21.675,6.13-12.164,1.382-42.864-4.117-36.944,16.466,2.588-.511,7.958,2.073,10.352,2.945,2.038.841,4.238,2.554,6.276,3.245,1.294.361,4.82,0,5.37.331,5.176,3.095,5.92,6.01,12.584,6.19,6.276.18,11.808,1.382,16.822-3.756,4.044-4.147,5.5-9.465,9.22-13.912,4.982-5.829,17.178-14.423,1.294-17.338a18.262,18.262,0,0,0-3.3-.3Zm377.33,4.928a3.444,3.444,0,1,0,0,6.881A3.444,3.444,0,1,0,506.536,299.88Zm99.929,2.4a12.828,12.828,0,0,0-3.073.511,27.757,27.757,0,0,1-4.626,2.224c-4.626,3.095-8.508,7.9-13.49,10.156-2.976,1.352-6.664,1.863-9.414,3.906-2.782,2.1-4.432,5.529-7.408,7.752-.356.331-.744.511-1.1.841-5.726,6.01-15.334,13.582-15.722,18.209-.55,5.829,4.626,13.4,11.646,13.221,5.726-.18,10.9-5.5,16.078-7.542,4.82-1.893,10.158-2.584,15.14-4.3,7.764-2.584,7.764-3.095,10.934-9.465,2.75-5.649,3.882-11.839,6.47-17.308,2.006-4.3,3.688-4.657,4.238-9.976a17.631,17.631,0,0,0-.55-5.5,15.257,15.257,0,0,0-9.123-2.7Zm-302.8,16.106a8.37,8.37,0,0,0-4.464,1.8c-4.626,3.065-6.276,8.413-9.252,12.68-2.394,3.606-5.726,7.572-7.764,11.178-1.65,2.915,2.232,7.722,4.076,8.744,3.688,1.893,9.058,2.4,12.94,3.936,4.238,1.562,9.414,4.477,14.234,2.4,3.688-12.53,3.332-20.913-2.782-32.272-2.2-3.966-3.4-8.564-6.955-8.474Zm41.214,3.185a4.592,4.592,0,0,0-1.262,0,6.448,6.448,0,0,0-1.941.962c-1.035.571-2.394.511-3.138,1.713-1.65,2.764-4.044,5.829-2.75,9.1a6.442,6.442,0,0,0,3.688,3.425c1.294.511,3.138.871,4.076,1.713,1.65,1.382,4.626,1.382,5.726-.691,2.394-4.447.744-11.959-3.332-15.775a1.978,1.978,0,0,0-1.068-.451ZM239.746,333.2a8.166,8.166,0,0,0-4.3.992c-7.57,5.168-6.664,20.433-7.57,27.644-1.488,13.4,7.02,17.849,17.922,9.285,6.082-4.808,6.276-8.413,9.8-15.445,2.2-4.477,5.888-8.413,7.376-13.221-2.556-4.207-15.463-9.4-23.195-9.255ZM92.78,349.309c-6.049.391-6.47,3.726-6.276,10.637.162,6.881.55,13.732,1.294,20.433.55,4.988,5.176,11.689,11.258,12.019,6.276-1.022,14.978-1.893,20.866-4.3,5.92-2.4,8.508-9.255,10.19-14.573,1.456-4.808,5.726-12.019.906-16.316-2.782-2.584-12.39-4.808-16.272-5.5a146.956,146.956,0,0,0-19.022-2.4,24.654,24.654,0,0,0-2.944,0Zm109.311,5.619c-.421-.12-1.391.06-4.367.391-3.882.361-8.282.361-11.97,1.022-2.588,3.786-6.7,9.1,2.006,11.689,4.432,1.2,19.41,2.073,21.8-1.382.938-1.2-1.65-3.425-2.588-4.447-1.65-1.893-4.464-7.121-4.885-7.272ZM150.977,361.9a2.884,2.884,0,0,0-.906.3c5.726,6.01,1.456,13.371,5.532,19.561,1.65,2.584,12.39,8.053,15.14,7.212,8.152-2.764-3.138-11.148-5.726-13.552C162.429,372.836,155.765,361.358,150.977,361.9ZM496.6,353.635c-1.876-.06-4.626,3.906-6.146,4.988-2.394,1.893-8.152,1.022-5.92,4.3.194.661,7.02,6.52,8.67,7.873,3.332,2.764,7.052,6.7,10.352,9.285,2.038,1.532,10.19,6.52,12.584,3.606,1.488-1.713-.55-9.435-.744-11.689-.55-6.16-2.232-4.447-6.276-6.851-4.076-2.224-6.114-6.19-10.74-8.263-.291-2.344-.97-3.215-1.779-3.245Zm-89.415,23.2a3.989,3.989,0,0,0-1.812.661,3.38,3.38,0,0,0-3.138,1.713c-2.038,3.095-5.176,7.212-1.1,10.667,2.588,2.043,6.276,3.426,9.414,4.447a4.153,4.153,0,0,0,4.27-1.532c3.138-4.988-.582-12.891-5.564-15.475a3.4,3.4,0,0,0-2.07-.481Zm-125.356,14.6-.841.03a3.127,3.127,0,0,0-2.847,2.644c-.938,4.3,6.47,5.5,7.182,1.2C285.845,392.968,283.871,391.556,281.833,391.436ZM133.994,404.447c-2.491.15-5.985,2.554-9.446,3.4-4.626,1.052-9.382.871-14.234,4.117-5.726,3.786-9.382,9.285-13.652,14.6-1.844,2.4-5.176,5.649-5.014,8.233.194,2.073,4.626,3.426,6.114,4.627,2.944,2.584,7.408,9.8,13.49,7.9,2.944-1.022,5.532-4.117,7.764-6.851,3.882-4.657,13.684-14.6,15.334-18.209,2.976-6.16,4.27-9.615,2.976-14.754-.647-2.4-1.812-3.125-3.332-3.065ZM56.839,418.9a17.04,17.04,0,0,0-6.017.962c-19.41,6.7-14.428,26.442-13.846,41.2.162,7.722,2.588,18.029,7.376,24.369,6.276,8.263,7.764.361,13.878,2.073,4.044-5.5,7.376-11.839,10.9-17.518,4.044-6.16,9.576-14.423,8.864-21.454-.97-10.817-8.023-29.117-21.157-29.627Zm348.021,3.576c-6.082.811-3.138,16.617-2.167,19.02,5.726.18,6.082-4.988,6.276-7.722,0-1.713,1.488-9.615-.906-10.637a5.819,5.819,0,0,0-3.235-.661Zm48.784,40.264a5.775,5.775,0,0,0-1.973.391c-4.626,1.532-7.214,12.019-5.014,15.625,2.038,3.606,7.052,5.469,10.546,7.362,2.232-3.095-.194-10.968-.194-14.754,0-3.456.582-8.744-3.364-8.654Zm95.95,4.808c-4.206-.06-7.829,1.052-8.67,5.2-.744,3.425,2.232,7.362,3.688,10.276,1.844,3.786,3.332,7.722,7.214,10.306,1.488-1.022,3.688-1.2,5.37-2.043,1.1-.541,2.2-1.562,3.3-2.073,4.27-2.073,5.176-1.713,7.02-5.829A26.6,26.6,0,0,0,569,478.575c.388-1.022,1.844-3.606,1.488-4.627-.55-2.764-6.858-4.3-9.058-4.657-2.944-.511-7.667-1.713-11.84-1.743Zm-61.4,3.486c-6.7.15-8.476,4.808-3.073,11.478,3.688,4.627,6.632,5.168,12.2,8.083,3.494,1.893,6.632,4.808,10.514,6.34,4.432-1.532,10.9-13.221,8.152-17.338-3.882-5.319-16.466-6.52-22.386-7.9a22,22,0,0,0-5.4-.661Zm-476.936.12-.906.03A15.311,15.311,0,0,0,0,475.991v9.435a14.6,14.6,0,0,0,3.526,3.095,4.082,4.082,0,0,0,4.432-.511A17.953,17.953,0,0,0,15.14,475.15c.582-1.382-.55-2.584-2.006-3.095a2.522,2.522,0,0,0-1.876-.9ZM647,475.991a16.072,16.072,0,0,0-.938,1.382,7.151,7.151,0,0,0,.938,8.053ZM203.029,488.912a7.185,7.185,0,0,0-3.817.992c-2.782,1.713-16.984,22.326-20.51,29.357-4.044,8.233,16.272,19.381,19.766,20.583,4.076,1.382,7.764-.511,11.84-.841,6.664-.691,15.528,1.713,21.448-2.254a43.15,43.15,0,0,1-1.294-9.766c.356-3.966,3.3-5.679,4.238-8.774,1.488-4.808-5.532-11.659-8.67-14.934-5.564-5.829-8.7-9.916-17.016-12.68-2.2-.751-4.044-1.653-5.985-1.713Zm241.622,7a3.43,3.43,0,1,0,0,6.851A3.43,3.43,0,1,0,444.651,495.913Zm-90.677.09c-3.364.361-10,4.147-12.1,5.048-7.02,2.764-4.432,3.786-5.726,8.924-1.1,4.988-4.982,8.414-5.726,13.732-8.314,3.606,2.232,5.679,4.982,7.392,3.138,1.713,4.27,7.542,7.214,4.117.388-.511,1.488-5.138,2.038-6.19,1.1-1.863,9.058-14.724,10.9-19.05,1.1-2.554,3.882-12.68-.356-13.882a2.951,2.951,0,0,0-1.229-.09ZM.194,502.944v0Zm550.338,8.714a12.25,12.25,0,0,0-4.982.9c-4.076,1.713-5.92,5.5-9.252,7.9-2.394,1.713-4.626,2.224-7.376,3.426-8.152,3.425-5.92,10.126-1.294,16.316,3.3,4.3,9.964,7.211,15.334,9.1,5.338,1.863,11.258,5.649,17.372,3.606,3.494-.871,11.1-7.211,12.2-10.156,1.1-2.734-.388-5.649-.744-8.414-.744-3.906-.356-7.722-.194-11.839-.356,0,0-3.936-.194-4.447-1.294-3.095-2.006-2.584-5.888-3.095-5.014-.631-10-3.215-14.978-3.305Zm-296.844,11.9-1.068.15a3.18,3.18,0,0,0-2.782,3.095,2.754,2.754,0,0,0-.906,3.095c.744,3.245,1.488,6.851,4.788,8.594a7.386,7.386,0,0,0,5.014.15c1.294-.331,2.75-1.352,4.238-1.352,2.232,0,4.432-2.073,3.688-4.3-1.359-4.507-7.635-9.766-12.972-9.435ZM4.917,526.772c-.421-.15-1.391.03-4.367.391H.194v13.732c5.338,0,10.9-.541,12.2-2.4.906-1.2-1.682-3.456-2.588-4.477-1.682-1.893-2.394-4.3-3.882-5.829-.744-.871-.615-1.292-1.035-1.412Zm642.083.21c-3.882.331-7.958.331-11.646,1.022-2.588,3.786-6.664,9.285,2.038,11.689A42.153,42.153,0,0,0,647,540.715Zm-37.947.541c-6.082.841-3.138,16.767-2.167,19.02,5.92,0,6.308-5.138,6.308-7.722,0-1.713,1.456-9.615-.938-10.637A5.846,5.846,0,0,0,609.053,527.524Zm-185.689,8.894a3.444,3.444,0,1,0,0,6.881C428.023,543.3,428.023,536.418,423.364,536.418Zm17.4,9.8c-3.72,2.554-6.308,15.625-2.426,18.69,5.37,4.477,17.76,2.073,23.842,1.713,11.29-.511,13.49-6.52,4.82-12.68-4.982-3.456-7.958-3.095-14.234-4.477C448.695,548.617,444.813,546.544,440.769,546.213Zm194.747.331c-2.911.361-3.494,3.095-4.206,5.679-1.132,3.936-1.876,7.873-2.782,11.839-1.488,5.5-.744,14.934,3.138,19.381,2.782,3.095,6.082,5.318,9.058,8.083,2.038,2.043,4.044,4.808,6.276,7.031V553.575a19.921,19.921,0,0,0-1.844-1.2c-1.844-1.352-6.858-6.01-9.608-5.829Zm-121.377.18c-4.626,0-4.626,6.851,0,6.851A3.429,3.429,0,1,0,514.138,546.724ZM0,553.575v44.982l2.232,2.073c.162.15.356.15.55.331H32.156c2.782-9.8-5.176-26.262-8.864-31.58,0,0-4.82-7.9-5.726-8.774-2.782-2.734-6.276-2.915-10.158-3.756A20.287,20.287,0,0,1,0,553.575Zm333.658.361c-4.917-.21-13.328,17.879-15.043,21.785,9.22,8.924,20.122-12.86,17.372-19.561C335.34,554.657,334.564,554,333.658,553.936Zm158.289,11.148a3.685,3.685,0,0,0-3.688,3.425,11.593,11.593,0,0,0,.744,5.168,3.88,3.88,0,0,0,4.594,2.4c1.876-.511,3.332-2.4,2.588-4.3-.162-.691-.356-1.2-.55-1.893v-1.382C496.023,566.8,493.79,565.084,491.946,565.084Zm34.647,5.288c-.421-.15-1.391.03-4.335.391-3.882.331-8.314.331-12,1.022-2.782,3.606-6.858,9.1,2.006,11.659,4.432,1.2,19.41,2.073,21.836-1.352.906-1.2-1.876-3.456-2.588-4.477-1.682-1.893-2.426-4.3-3.882-5.829-.744-.871-.615-1.292-1.035-1.412Zm69.391,29.747a24.693,24.693,0,0,0-3.494.661h5.726a2.882,2.882,0,0,0-2.232-.691Z" transform="translate(0 0)" fill="#7985b9"/>
        <path id="Path_10" data-name="Path 10" d="M421.456,0a27.624,27.624,0,0,1-4.594,2.4c-3.332,1.382-13.328,4.3-14.622,7.9-1.488,3.906,2.038,6.34,5.176,8.924,5.014,3.936,10.19,7.362,14.978,11.328,6.858,5.469,20.9,10.968,29.762,9.075,6.114-1.352,11.646-4.117,17.566-5.649,5.726-1.562,13.134-2.073,18.666-4.477,4.82-2.043,8.864-7.031,13.134-10.126,3.688-2.734,10.352-7.362,11.84-11.659A12.741,12.741,0,0,0,513.912,0ZM241.266,0a21.839,21.839,0,0,0,10.352,10.306c9.77,5.318,11.969-2.915,19.184-7.392C272.484,1.893,274.134.871,275.816,0ZM48.525,0a16.941,16.941,0,0,0,.841,4.117,5.932,5.932,0,0,0,9.608,1.713,4.385,4.385,0,0,0,.906-1.2A6.989,6.989,0,0,0,61.465,0ZM276.334,32.332c-1.682,0-3.041,1.052-5.5,4.387-3.72,4.627-7.958,8.053-11.322,12.861a77.573,77.573,0,0,0,8.9,14.243c4.27,4.988,6.114,5.168,11.84,4.657,11.646-1.052,25.524,0,22.192-14.093-.744-2.734-.582-5.469-.971-7.873-.712-4.117.388-2.915-3.106-5.829-4.27-3.786-9.252-4.808-14.428-6.19-3.882-1.022-5.92-2.163-7.6-2.163Zm76.767,4.3-2.038.03a28.321,28.321,0,0,0-10.546,2.794c-2.426,1.2-10.74,5.168-10.9,8.083-.194,2.584,2.911,3.606,4.206,5.5,1.132,1.713.971,4.447,2.07,6.01,5.726,8.233,14.04,7.362,21.8,2.734,4.238-2.584,11.29-8.083,14.04-12.35.938-1.382,2.782-2.4,2.426-4.477-1.488-4.447-4.076-1.2-5.758-5.649-5.823-1.322-10.546-2.584-15.3-2.674Zm187.4.451c-12.358,0-20.866.3-31.218,6.671-8.152,5.168-16.822,10.306-14.234,19.922,2.038,7.542,2.394,16.136,8.12,22.3,4.27,4.627,12.2,10.637,18.5,12.861,9.058,2.945,20.51-.15,27.174-6.671,4.788-4.808,11.452-10.306,13.3-17.338.938-3.936-.194-18.54-2.944-21.454-2.038-2.224-7.408-4.3-10-6.01-2.944-2.043-3.332-1.352-5.532-4.447C542.38,41.2,542.38,38.792,540.5,37.079ZM156.93,56.611c-.291-.03-.582,0-.906,0-4.432.361-9.058,2.254-11.1,6.19-2.2,4.477.388,8.594,4.626,11.178a4.188,4.188,0,0,0,4.432-.541A17.959,17.959,0,0,0,161.2,60.577c.194-1.382-.938-2.584-2.394-3.095a2.522,2.522,0,0,0-1.876-.9ZM78.707,70.973a23.285,23.285,0,0,0-4.95.421c-4.432.841-6.276,2.554-9.8,5.319-7.02,5.649-15.528,10.968-5.37,17.157,0,0,1.682-.511,7.958-4.117,4.27-2.584,17.21-8.744,17.21-14.423C83.981,72.115,81.522,71.124,78.707,70.973ZM441.674,75.3c-.226-.15-.776.03-2.459.391-2.2.331-4.626.3-6.664,1.022-1.456,3.756-3.688,9.255,1.132,11.659,2.394,1.2,10.708,2.073,12-1.352.55-1.2-.906-3.456-1.488-4.477-.712-1.893-1.1-4.117-2.038-5.829-.324-.871-.259-1.292-.485-1.412ZM146.287,91.166c-4.205-.06-8.087,1.262-8.573,5.619-.356,3.275,1.132,6.34,1.844,9.435.388,1.893,2.782,2.915,4.626,2.4,2.976-.691,4.27-3.756,5.176-6.16a33.762,33.762,0,0,0,2.038-7.572,2.905,2.905,0,0,0-2.038-2.915,4.88,4.88,0,0,0-1.294-.691q-.886-.1-1.779-.12Zm117.948,1.623c-1.391-.03-2.847,0-4.335.06.938,6.671-1.294,15.264,4.076,20.433,6.114,5.649,21.448,16.286,30.118,13.522,12.034-3.906-4.238-16.106-7.57-21.935C281.671,96.3,274,93.119,264.2,92.788Zm-205.649,15.5a3.429,3.429,0,1,0,0,6.851A3.429,3.429,0,1,0,58.586,108.293Zm551.5.751a64.814,64.814,0,0,0-5.047,2.674c-1.682,2.734-4.076,5.829-2.782,9.1a6.861,6.861,0,0,0,3.526,3.425c1.294.511,3.138.841,4.044,1.713,1.682,1.352,4.626,1.382,5.758-.691,2.588-4.447,1.844-13.041-3.17-15.775a3.784,3.784,0,0,0-2.329-.451ZM437.954,120.823c-3.17-.15-7.667,1.5-8.9,3.425-1.488,2.224-.938,5.649-.938,8.053,2.588.18,6.858-3.786,9.058-4.988,2.426-1.352,6.664-3.065,3.332-5.649a4.276,4.276,0,0,0-2.588-.841Zm-180.092,2.7h-.906a13.094,13.094,0,0,0-10.9,6.01c-2.426,4.507.162,8.774,4.432,11.358a4.184,4.184,0,0,0,4.432-.511,17.956,17.956,0,0,0,7.214-12.891c.194-1.352-.938-2.554-2.394-3.095a2.522,2.522,0,0,0-1.876-.9Zm199.988,18.84c-3.882-.18-7.376,2.554-7.214,6.34.194,3.425,3.882,6.01,7.052,7.031,4.238,1.2,8.12-1.382,7.926-5.5a3.243,3.243,0,0,0-.356-1.352A7.858,7.858,0,0,0,457.849,142.368Zm159.291,2.374-.841.03a3.317,3.317,0,0,0-2.944,2.644c-.938,4.3,6.47,5.469,7.214,1.2.485-2.344-1.423-3.786-3.429-3.906ZM481.368,163.7c-3.882,0-5.37,5.168-7.958,7.572-4.626,4.447-7.57,7.031-2.588,12.32,2.782,2.945,7.02,7.212,10.74,8.113a24.294,24.294,0,0,0,14.04-.361c2.232-.691,3.882-2.4,5.92-3.425,2.038-1.2,6.276-1.893,7.57-3.786,1.844-2.915-.744-9.435-1.294-12.35-2.2-9.8-18.116-7.212-26.43-8.083ZM251.683,178.756c-.421-.12-1.391.06-4.335.391-3.882.361-8.314.361-12.034,1.022-2.588,3.786-6.632,9.285,2.038,11.689,4.432,1.2,19.41,2.043,21.8-1.382.938-1.2-1.65-3.425-2.588-4.447-1.65-1.893-2.394-4.3-3.882-5.859C251.974,179.327,252.1,178.906,251.683,178.756Zm-171.1,7.272c-5.888.331-10.9,4.808-16.434,9.615-5.176,3.906-11.29,5.649-14.784,12.019C45.1,215.174,46.034,229.6,52.86,234.4a3.176,3.176,0,0,0,.938.511,22.7,22.7,0,0,0,3.332.871c2.944.18,6.276-1.022,9.252-2.4,2.944-2.224,5.338-5.318,8.67-8.053C82.46,219.14,85.4,218.119,88.93,207.3c2.75-8.594,5.176-11.659-2.426-17.518a28.037,28.037,0,0,0-5.92-3.756Zm360.735,7.091a3.914,3.914,0,0,0-1.941.962,3.683,3.683,0,0,0-3.106,1.713c-1.682,2.764-4.076,5.829-2.782,9.1a6.643,6.643,0,0,0,3.526,3.425c1.294.511,3.138.871,4.044,1.713,1.682,1.382,4.626,1.382,5.726-.691,2.426-4.447,1.844-13.041-3.138-15.775a3.784,3.784,0,0,0-2.329-.451Zm15.463,47.145c-4.982.15-13.684,7.362-16.272,11.118-1.65,2.584-6.082,11.508-5.726,14.273.744,4.627,16.272,22.3,21.448,23.678,6.47,1.532,8.864-3.966,12.2-8.774,3.882-5.469,4.432-7.873,5.37-14.062.906-6.52,2.588-9.074-3.332-14.062-2.588-2.224-10.74-12.53-13.684-12.169Zm-128.3,1.142-.906.03c-4.27.18-8.9,2.073-10.9,6.01-2.426,4.477.162,8.774,4.432,11.328a4.074,4.074,0,0,0,4.432-.511,17.959,17.959,0,0,0,7.214-12.861,3.143,3.143,0,0,0-2.426-3.095A2.519,2.519,0,0,0,328.482,241.406ZM177.246,253.245c-4.173-.03-7.829,1.082-8.637,5.2-.744,3.425,2.2,7.362,3.688,10.306,1.844,3.906,3.138,7.873,7.214,10.276,1.456-1.022,3.688-1.2,5.338-2.043,1.132-.541,2.232-1.562,3.332-2.073,4.27-2.073,5.176-1.713,7.02-5.829a27.858,27.858,0,0,0,1.488-4.808c.356-1.022,1.844-3.606,1.488-4.627-.55-2.584-6.858-4.117-9.058-4.627C186.142,254.477,181.451,253.305,177.246,253.245ZM81.684,277.193a3.289,3.289,0,0,0-3.106,2.344c-.582,2.073-.938,4.627.162,6.7a5.417,5.417,0,0,0,4.82,2.734c3.688,0,7.214-3.425,6.082-7.031-.712-2.4-3.138-3.606-5.5-4.3a2.421,2.421,0,0,0-.97-.3A4.653,4.653,0,0,0,81.684,277.193Zm378.3,33.413c-4.206.24-8.929,2.163-12.811,2.915-5.92,1.2-13.49,2.915-18.666,6.01-5.92,3.606-12.94,18.179-9.446,24.7,10.352,18.87,46.034-21.454,42.7-33.654a13.611,13.611,0,0,0-1.779,0ZM387.2,321.244a11.729,11.729,0,0,0-7.7,3.606c-1.294,1.2-.906,2.915-.162,4.117a20.232,20.232,0,0,0,12.39,8.924,3.465,3.465,0,0,0,3.688-1.532,3.272,3.272,0,0,0,1.456-2.254c.388-4.117-.712-8.744-4.594-11.328a8.858,8.858,0,0,0-5.079-1.5Zm137.779.781a4.169,4.169,0,0,0-1.294.09c-2.75.511-4.982,3.065-7.02,4.808,1.682,1.863,7.6,2.043,10.19,2.7,2.75.721,6.826,2.614,6.632-1.5C533.322,325.42,528.211,322.3,524.976,322.025Zm66.188,40.054c-3.558-.21-8.346,2.314-9.608,5.168-1.488,3.425-.938,8.564-.938,12.32,2.976.361,7.408-5.8,10-7.692,2.588-2.073,7.214-4.627,3.526-8.594A4.363,4.363,0,0,0,591.164,362.079Zm-390.5,20.613c-3.494.18-6.5,1.683-6.923,5.469-.388,3.275,1.1,6.37,1.844,9.435.356,1.893,2.782,2.915,4.626,2.4,2.944-.691,4.205-3.756,5.176-6.16a35.509,35.509,0,0,0,2.006-7.572,2.876,2.876,0,0,0-2.006-2.915,13.38,13.38,0,0,0-1.488-.511,17.5,17.5,0,0,0-3.235-.15ZM596.372,392.1a12.743,12.743,0,0,0-4.853,1.563c-4.044,1.713-7.764,3.606-11.808,5.319-5.564,2.224-13.134,8.744-14.428,14.243-.906,3.936-.55,7.722-1.294,11.659-.744,3.786-2.394,8.083-2.2,11.869,0,3.245,2.038,7.031,2.944,10.276.744,2.915,1.844,7.9,4.238,9.946,13.134,11.178,29.05-16.106,32.188-24.519,0,0,3.688-8.413,3.882-9.615.55-3.786-1.488-6.52-3.138-9.8a18.489,18.489,0,0,1-1.844-9.435c0-2.224.906-8.714-1.132-10.457a3.349,3.349,0,0,0-2.556-1.052ZM244.21,393.84c-1.132,3.606,4.044,10.276,5.532,13.732,1.488,3.606,2.976,9.916,8.152,6.01,3.882-2.945,2.394-13.582-1.132-16.316-3.332-2.584-8.67-2.734-12.552-3.425Zm-79.257,14.573c-3.558-.21-8.411,2.314-9.673,5.138-1.488,3.455-.938,8.594-.938,12.38,2.976.331,7.408-5.829,10-7.722,2.588-2.073,7.214-4.627,3.526-8.594a4.122,4.122,0,0,0-2.911-1.2ZM644.573,409.8a17.3,17.3,0,0,0-14.946,6.7c-7.02,8.924-.55,23.317,10.158,27.434A41.92,41.92,0,0,0,647,445.492V409.976Q645.792,409.834,644.573,409.8ZM0,409.975v35.517c9.058,1.352,22.936,1.893,24.392-2.4,1.294-3.786-5.338-11.839-6.632-15.445-1.682-4.808-.744-10.126-5.176-13.732A39.521,39.521,0,0,0,0,409.975Zm216.163,13.582c-3.623.06-7.182.661-8.411,1.683-1.618,1.382-.906,4.3-2.588,5.649-1.456,1.382-5.5,1.563-7.376,2.073-3.3-1.713-1.65.511-2.588,1.382-.906.841-1.844,4.117-3.882,6.01-3.494,2.915-11.064,6.851-1.844,9.435,2.782.661,5.726-.361,8.508.331,3.138.871,6.47,3.275,9.058,4.988,4.432,2.915,10.158,9.435,14.784,3.906,2.782-3.245,2.976-13.341,3.882-17.458.744-4.3,3.332-13.221-.906-16.5-1.391-1.112-5.047-1.593-8.637-1.5Zm302.472,1.262c-7.279-.06-13.684,3.7-21.545,7.121-13.49,6.01-22.936,8.414-18.31,18.69,1.844,4.117,4.076,12.861,11.29,14.062,10.708-3.606,22-6.52,32.9-10.457,2.588-1.022,10.158-3.425,12-4.627a6.573,6.573,0,0,0,2.588-4.3,13.367,13.367,0,0,0-3.138-4.627c-2.782-2.915-4.076-6.19-1.294-9.615a30.284,30.284,0,0,0-3.882-3.426,23.307,23.307,0,0,0-10.643-2.824Zm-179.09,12.44a78.753,78.753,0,0,0-11.614.511c-6.082,7.722-3.332,17.488-2.038,27.1a34.864,34.864,0,0,0,2.038,9.946c1.294,3.095,1.488,9.1,5.37,10.306,5.37,1.713,6.664-3.606,8.67-6.52,5.014-7.212,17.954-35.006,6.114-40.324a28.163,28.163,0,0,0-8.54-1.022Zm-43.317,27.584c-.421-.15-1.391.03-4.335.391-3.882.33-8.314.3-12.034,1.022-2.588,3.756-6.826,9.255,2.038,11.659,4.432,1.2,19.41,2.073,21.836-1.352.906-1.2-1.682-3.456-2.588-4.507-1.682-1.863-2.426-4.267-3.882-5.8C296.52,465.384,296.649,464.963,296.229,464.843Zm308.263,15.024a13.649,13.649,0,0,0-2.038.12c-3.138.331-13.49,2.734-15.528,4.808-3.688,3.425-9.058,25.721-6.858,30.2,2.782,5.649,8.9,4.117,14.978,3.426a30.326,30.326,0,0,0,15.172-4.988c5.92-3.426,9.252-3.756,9.8-11.118.162-3.305,3.882-15.625,1.844-17.518-2.75-3.155-12-4.868-17.372-4.9Zm38.335,19.5c-3.494-.21-8.314,2.314-9.705,5.138-1.456,3.455-.906,8.594-.906,12.38,2.944.15,7.376-5.859,9.964-7.722,1.876-1.382,4.464-3.095,4.82-5.168v-1.022a6.149,6.149,0,0,0-1.294-2.4,4.085,4.085,0,0,0-2.879-1.2Zm-141.3,9.826c-7.57.12-14.04,5.228-21.642,6.13-12.2,1.382-42.9-4.117-36.976,16.466,2.588-.511,7.958,2.073,10.352,2.945,2.038.841,4.27,2.554,6.308,3.065,1.294.361,4.788,0,5.338.361,5.176,3.095,5.92,6.01,12.584,6.16,6.276.18,11.84,1.382,16.822-3.756,4.076-4.117,5.532-9.435,9.252-13.912,4.788-5.829,16.984-14.243,1.294-17.158a18.351,18.351,0,0,0-3.332-.3ZM88.542,519.11a3.429,3.429,0,1,0,0,6.851A3.429,3.429,0,1,0,88.542,519.11Zm202.026,4.9a10.7,10.7,0,0,0-2.2.24,2.982,2.982,0,0,0-2.588,2.584,3.04,3.04,0,0,0-1.1,3.245c.938,3.786,1.65,8.924,7.214,8.594a31.132,31.132,0,0,0,10.158-2.915,3.341,3.341,0,0,0,1.844-3.786c-1.294-4.808-7.958-8.023-13.328-7.963ZM170.614,535.036a3.585,3.585,0,0,0-3.138,2.4c-.55,2.1-.906,4.657.194,6.731a5.611,5.611,0,0,0,4.82,2.554c3.688,0,7.182-3.425,6.082-7.031-.744-2.4-3.138-3.606-5.532-4.3-.388-.15-.582-.331-.938-.331a5.116,5.116,0,0,0-1.488-.03Zm86.213,19.231c-4.044-.09-7.764.541-10.417,2.584-3.332,2.584-3.688,7.212-4.076,11.178-.744,6.671-.55,8.413-5.338,13.011-3.332-1.713-.55-5.469-3.688-7.031-5.758,3.966,4.432,16.136,5.726,20.613.712,2.4,1.456,4.447,2.2,6.34h34.582c4.788-2.4,9.414-5.138,12.2-9.615,4.238-7.031,4.076-14.423,4.432-22.3.194-3.456,1.65-8.594-1.844-11-2.588-1.893-10.9-.841-14.622-1.2C271.125,556.43,263.555,554.386,256.827,554.266Zm206.684,29.267c-2.264,0-4.27.12-5.823.271,0,0-14.4.691-16.24,1.2-5.758,1.713-8.508,5.829-12.2,9.946a27.484,27.484,0,0,1-7.764,6.01h92.2c-3.559-14.273-34.291-17.638-50.175-17.428ZM55.286,593.419a6.632,6.632,0,0,0-5.176,1.713c-1.488,1.382-1.779,3.756-1.585,5.829h12.94a6.64,6.64,0,0,0-1.391-5.138,7.285,7.285,0,0,0-4.788-2.4Z" transform="translate(0 0)" fill="#4f5672"/>
        <path id="Path_11" data-name="Path 11" d="M85.727,0a62.953,62.953,0,0,0,15.69,9.1c22.936,8.413,60.98,16.136,72.076-6.01A18.639,18.639,0,0,0,174.4,0ZM210.049,5.679c-10.352,2.4-50.984,18.54-33.256,31.25,3.882,2.734,8.314,5.319,12.39,8.053,3.526,2.4,7.764,4.117,11.646,6.37a39.619,39.619,0,0,0,7.57,1.893c7.214,1.2,15.528-1.052,18.86-7.212,1.844-3.606,1.65-6.7.906-10.156a21.091,21.091,0,0,1-2.782-5.138c-2.006-6.7-4.788-24.549-15.334-25.06ZM647,95.973c-7.214-.15-13.684,2.254-14.428,9.8-.55,5.679,2.038,11,3.17,16.5.55,3.245,4.788,4.958,7.926,4.117A10.1,10.1,0,0,0,647,124.82ZM0,96.334V125.18A19.746,19.746,0,0,0,5.92,115.9a56.556,56.556,0,0,0,3.332-13.041c.162-2.224-1.488-4.117-3.526-5.168a5.937,5.937,0,0,0-2.394-1.022A25.569,25.569,0,0,0,0,96.334Zm401.172,7.272c-6.147-.09-13.911,3.846-18.375,5.258-10.9,3.606-11.808,12.71-2.006,18.87,5.5,3.456,8.282,2.4,14.946,2.764,4.076.18,8.314,2.043,12.39,1.532,3.138-4.627,2.944-23.5-1.488-26.773a9.018,9.018,0,0,0-5.467-1.653ZM539.63,115.625c-3.073,0-5.823,1.322-9.026,1.8-4.626.721-9.414,2.4-13.846,2.764-5.176.511-10.708-1.022-15.884-.331-8.508,1.2-14.978,9.615-16.272,17.518-1.844,12.35,5.176,13.732,15.528,16.647,5.726,1.532,8.476.691,14.04,1.022,4.044.18,6.826,3.095,10.9,3.606,5.338.691,13.846-3.425,16.628-7.722,2.944-4.808,1.1-12.891,10.158-11.508,7.764-.331,6.632-10.126,3.138-14.6-2.232-2.734-8.7-7.722-12.2-8.744a10.243,10.243,0,0,0-3.17-.481ZM85.986,138.041c-3.3.27-6.793,2.7-9.705,3.606-2.394.871-4.788-.331-5.694,4.988-.744,3.425.356,6.851.906,10.637a10.181,10.181,0,0,0,.744,2.4c2.038,4.117,4.626,2.254,7.214.361,3.688-2.764,8.864-6.7,11.646-13.582a9.991,9.991,0,0,0-.194-6.52,5.944,5.944,0,0,0-4.917-1.893Zm116.525,8.2c-3.267.24-8.185,2.073-10,2.464-6.47,1.022-4.238,2.734-5.726,7.9-1.294,4.808-5.176,7.512-6.114,13.221-7.926,1.863,1.488,6.52,3.882,8.924,2.588,2.734,3.332,9.074,6.114,6.31.356-.481,1.65-4.958,2.394-6.16,1.1-1.713,2.782-2.734,3.882-4.627,2.2-3.936,5.37-8.744,7.376-12.891,1.132-2.4,4.626-12.32.744-14.724A3.817,3.817,0,0,0,202.511,146.244Zm-69.552,32.6a12.266,12.266,0,0,0-4.885.421c-4.27,2.043-6.664,9.435-5.92,13.732.744,4.447,5.92,10.306,7.958,14.243,3.138,6.34,6.47,13.4,10.158,19.742,3.138,4.808,5.176,8.263,9.414,10.126,7.57,2.945,16.984,3.095,23.454-.331,4.076-2.073,6.276-7.542,7.958-13.041a65.759,65.759,0,0,0,1.488-27.494c-1.682-13.221-18.31-12.169-29.018-14.754A147.906,147.906,0,0,0,132.958,178.846Zm418.836,25.571c-6.308.3-7.764,5.228-13.037,10.4-5.888,5.829-17.922,12.53-15.334,22.145-2.2,2.4-.55,2.584-.906,4.627a42.488,42.488,0,0,1-1.1,4.477c.55,2.915,2.912,4.808,2.75,8.233-.194,5.138-4.788,10.306-2.2,15.955.906,2.073,3.688,5.679,6.632,5.319,4.27-.331,2.038-2.043,3.526-5.319,2.394-5.5,7.182-11.148,10.676-16.136.227-.18.227-.33.388-.511a26.221,26.221,0,0,1,1.844-7.9c3.882-10.306,13.328-20.433,24.78-23.167,3.688-2.764,7.02-7.212,4.044-11.328-2.912-4.147-12.164-4.988-16.822-6.19a19.43,19.43,0,0,0-5.241-.6Zm-50.013,1.593-.873.03c-4.432.361-9.058,2.224-11.1,6.19-2.394,4.447.194,8.744,4.432,11.328a4.066,4.066,0,0,0,4.432-.511,17.956,17.956,0,0,0,7.214-12.891c.162-1.352-.938-2.554-2.232-3.245a2.522,2.522,0,0,0-1.876-.9Zm-290.018.21c-4.626,2.734-11.29,3.936-13.134,9.1-2.038,5.649-4.594,18.359.194,22.837,6.664,6.01,9.964-7.9,13.134-11.689C217.133,219.621,215.839,213.071,211.763,206.22ZM15.172,220.463c-3.559-.21-8.346,2.314-9.608,5.168-1.456,3.425-.906,8.564-.906,12.32,2.944.361,7.376-5.8,9.964-7.692,2.588-2.073,7.214-4.627,3.526-8.594A4.363,4.363,0,0,0,15.172,220.463Zm612.58,19.02a12.586,12.586,0,0,0-4.206.391,2.948,2.948,0,0,0-1.1.15,3.992,3.992,0,0,0-2.75,4.657,8.578,8.578,0,0,0,4.238,6.19,6.328,6.328,0,0,0,6.276-.18c3.526-1.893,4.432-7.212,1.294-9.8a7.12,7.12,0,0,0-3.753-1.412ZM8.832,271.033c-4.3,0-7.279,1.322-6.567,7.993.712,6.52,5.694,11.659,8.864,17.338,2.75,4.808,5.176,10.637,8.087,15.114,2.426,3.606.971,3.095,6.308,3.095a11.486,11.486,0,0,0,6.826-1.743c4.626-2.4,8.7-7.542,12.778-10.637,4.594-3.095,11.452-6.52,11.969-12.53C44.74,277.824,34.776,272.836,17.4,271.815c-2.976-.21-6.017-.721-8.573-.751Zm591.52,11.118a4.875,4.875,0,0,0-1.2,0,3.3,3.3,0,0,0-1.456.481c-2.038,1.2-2.2,3.245-1.294,5.138a11.527,11.527,0,0,0,3.688,4.477c1.682,1.2,4.27,1.352,5.726-.18a3.755,3.755,0,0,0-.162-5.319l-1.682-1.532c0-.18-.162-.18-.162-.361l-.582-1.022a3.78,3.78,0,0,0-2.911-1.713Zm-108.7,37.35-.906.03a13.1,13.1,0,0,0-10.934,6.01c-2.394,4.477.194,8.774,4.464,11.328a4.082,4.082,0,0,0,4.432-.511,17.953,17.953,0,0,0,7.182-12.861c.194-1.382-.906-2.584-2.394-3.095a2.522,2.522,0,0,0-1.876-.9ZM59.88,340.835c-4.238.331-2.038,2.043-3.494,5.318-2.394,5.5-7.214,11.178-10.708,16.136-.194.18-.194.361-.388.511a31.264,31.264,0,0,1-1.65,7.9c-3.882,10.307-13.134,20.433-24.748,23.2-3.72,2.734-7.052,7.211-4.076,11.328,2.944,4.117,12.2,4.958,16.822,6.16,10.9,2.584,11.646-3.425,18.116-9.766,5.888-5.859,17.89-12.53,15.3-22.145,2.232-2.4.388-2.584.938-4.657a43.615,43.615,0,0,1,1.1-4.447c-.55-2.915-2.944-4.808-2.75-8.263.162-5.138,4.788-10.276,2.2-15.956-.906-2.073-3.688-5.649-6.664-5.318Zm275.913,20.853c-4.141.18-5.5,8.5-6.729,11.238a26.43,26.43,0,0,1-6.632,9.465c-.388.331-.938.661-1.488,1.2-2.038,1.863-4.788,3.426-5.92,5.829-3.494,7.722,9.8,14.423,16.272,11.328,2.394-1.2,2.75-3.095,5.532-3.786,2.588-.661,5.37.9,7.764.361a37.122,37.122,0,0,0,13.49-5.679,18.473,18.473,0,0,0,7.926-10.637c.582-2.4.971-4.627,1.294-6.881v-1.2c-.55-9.255-8.087-10.637-16.434-8.924-2.75.691-5.176,1.713-8.12,1.022-2.394-.511-4.076-2.915-6.114-3.245a3.37,3.37,0,0,0-.841-.09Zm-33.159,47.776a4.755,4.755,0,0,0-.906.06c-4.432.331-9.058,2.224-11.1,6.16-2.394,4.477.194,8.774,4.464,11.328a4.082,4.082,0,0,0,4.432-.511,17.952,17.952,0,0,0,7.182-12.861,3.336,3.336,0,0,0-2.2-3.275A2.522,2.522,0,0,0,302.634,409.465Zm-15.4,28.185c-3.494-.21-8.314,2.344-9.7,5.168-1.488,3.426-.938,8.594-.938,12.38,2.976.331,7.6-5.679,10-7.752,2.588-2.043,7.182-4.627,3.494-8.564a4.05,4.05,0,0,0-2.847-1.2ZM110.152,459.465a3.742,3.742,0,0,0-3.72,3.455,12.441,12.441,0,0,0,.744,5.138,4.173,4.173,0,0,0,4.626,2.4c1.844-.511,3.332-2.4,2.588-4.3l-.55-1.893V462.92C114.034,461.177,112,459.465,110.152,459.465ZM90.386,485.907c-3.882-.15-7.408,2.584-7.214,6.37.194,3.425,3.882,6.01,7.02,7.031,4.076,1.022,7.926-1.532,7.764-5.679a2.84,2.84,0,0,0-.388-1.352,7.348,7.348,0,0,0-7.182-6.37Zm29.536,22.326c-3.882,0-5.338,5.168-7.926,7.572-4.432,4.3-7.408,7.031-2.588,12.35,2.588,2.915,7.02,7.031,10.708,8.083a24.294,24.294,0,0,0,14.04-.361c2.232-.691,3.882-2.4,5.92-3.425,2.038-1.2,6.276-1.893,7.57-3.786,1.844-2.915-.744-9.435-1.294-12.35-2.2-9.8-18.116-7.211-26.43-8.083ZM403.89,546a3.735,3.735,0,0,0-3.688,3.456,11.929,11.929,0,0,0,.744,5.138,4.007,4.007,0,0,0,4.626,2.4c1.844-.511,3.3-2.4,2.588-4.3l-.582-1.893v-1.352c.194-1.713-1.844-3.456-3.688-3.456ZM113.84,565.414c-14.4,2.223-35.261.871-42.12,9.1-5.37,7.392,3.332,18.359,13.846,26.442h88.7c1.844-14.243-27.368-23.528-44.9-30.739C129.368,570.222,115.684,565.775,113.84,565.414Zm307.228,6.31a3.446,3.446,0,0,0-3.138,2.434c-.55,2.073-.906,4.658.194,6.7a5.37,5.37,0,0,0,4.788,2.764c3.72,0,7.214-3.426,6.114-7.031-.744-2.4-3.138-3.606-5.532-4.3-.388-.18-.55-.361-.938-.361a3.943,3.943,0,0,0-1.488-.21Z" transform="translate(0 0)" fill="#d2d8f4"/>
      </g>
      <g id="pattern_5_2" data-name="pattern (5)" transform="translate(645)">
        <rect id="Rectangle_102-2" data-name="Rectangle 102" width="647" height="601"/>
        <path id="Path_8-2" data-name="Path 8" d="M321.927,0a9.8,9.8,0,0,1-3.154,2.224c-3.9,2.073-15.248,6.52-13.363,12.71,2.406,7.392,17.232-2.4,23.409-.361,6.275,2.073,8.323,10.667,14.468,2.764,2.959-3.936,4.064-10.457,4.454-15.264L347.547,0ZM532.283,0c0,1.532.748,3.095,2.438,4.988,2.764,2.915,7.055,7.212,10.729,8.053a24.91,24.91,0,0,0,14.143-.331c2.211-.691,3.9-2.4,5.95-3.456,2.048-1.2,6.307-1.863,7.608-3.756.91-1.382.748-3.425.358-5.5Zm96.009,8.594c-5.007.15-13.753,7.362-16.354,11.148-1.626,2.584-6.112,11.508-5.722,14.243.553,4.808,16.126,22.506,21.328,23.678,6.5,1.563,8.908-3.906,12.257-8.714,3.9-5.529,4.454-7.933,5.4-14.123.91-6.49,2.6-9.075-3.154-14.062-2.6-2.224-10.794-12.53-13.753-12.169ZM573.7,33.293a3.444,3.444,0,1,0,0,6.881A3.444,3.444,0,1,0,573.7,33.293ZM392.512,58.173h-.975a12.623,12.623,0,0,0-3.316,1.893,29.455,29.455,0,0,1-3.9,5.859c-2.6,2.915-10.6,6.01-10.209,10.457.163,2.915,3.349,5.138,7.25,7.212a23.849,23.849,0,0,1,9.624,4.117l1.138.511a2.382,2.382,0,0,0,1.105.18c6.86,1.022,19.117-9.285,18.207-16.136-.715-4.507-13.655-13.522-18.922-14.093Zm-357.475.361c-5.2,0-10.729,2.584-15.021,4.3-.943.331-1.853.841-2.8,1.2a5.36,5.36,0,0,0-2.406,3.606c-.2.691.2,1.382,0,2.224-.2,1.532-1.658,3.275-1.658,4.808,0,2.915,6.5,4.627,10.729,5.138,4.682.541,9.494-.841,13.753-1.863,3.706-.9,8.193-1.743,11.509-3.095,4.1-1.713,4.1-3.966,3.739-6.881a14.956,14.956,0,0,0-1.5-4.627c-.39-.18-.553-.511-.943-.691-2.764-1.893-11.119-4.117-15.411-4.117ZM93.169,85.667c-3.9,0-5.4,5.138-8,7.542-4.454,4.3-7.413,7.031-2.6,12.35,2.8,2.915,7.055,7.212,10.794,8.083a26.3,26.3,0,0,0,14.11-.361c2.211-.661,3.9-2.4,5.917-3.425,2.048-1.2,6.34-1.893,7.608-3.786,1.886-2.915-.715-9.435-1.3-12.35-2.211-9.8-18.207-7.212-26.53-8.053ZM482.117,87.59c-6.112.841-3.154,16.767-2.178,18.99,5.755.18,6.112-4.958,6.307-7.722.2-1.713,1.5-9.435-.91-10.637a5.907,5.907,0,0,0-3.251-.631Zm-261.3,27.644c-4.844-.18-11.477,2.254-13.265,5.108-2.243,3.425-1.3,8.413-1.3,12.169,4.1.361,10.209-5.649,13.558-7.542,3.706-2.073,10.014-4.627,5.007-8.594a7.225,7.225,0,0,0-4-1.142Zm-86.646,2.855a15.606,15.606,0,0,0-2.926.18c-13.363,1.893-36.577,11.689-29.164,27.133,8.551,17.488,29.521,11.478,45.322,10.126,8.356-.691,19.28-3.606,25.782-8.594,8.356-6.52-.163-7.212,1.3-13.041q-9.639-4.822-19.67-8.924c-5.852-2.855-13.688-6.761-20.645-6.911Zm108.527,33.474c-3.576-.21-8.453,2.314-9.721,5.168-1.463,3.425-.91,8.564-.91,12.35,2.959.331,7.413-5.829,10.014-7.722,2.6-2.073,7.25-4.627,3.544-8.594a4.119,4.119,0,0,0-2.926-1.2Zm131.773,22.506c-2.959.331-3.511,3.065-4.259,5.649-1.138,3.966-1.853,7.9-2.8,11.839-1.5,5.5-.748,14.934,3.154,19.411,2.8,3.095,6.145,5.318,9.1,8.053,2.8,2.764,5.4,6.7,8.551,9.1,2.764,2.073,7.218,2.915,10.567,4.3,2.991,1.2,8,3.606,11.152,3.095,17.459-2.4,4.454-30.919-.748-38.461,0-.18-4.812-8.053-5.755-8.924-2.8-2.734-6.307-2.915-10.209-3.786a22.255,22.255,0,0,1-9.1-4.447C382.271,178.515,377.264,173.888,374.468,174.068Zm-61.449,8.413a3.431,3.431,0,1,0,0,6.851A3.431,3.431,0,1,0,313.019,182.482Zm220.37,8.2a3.477,3.477,0,0,0-3.121,2.4c-.585,2.1-.943,4.657.162,6.731a5.688,5.688,0,0,0,4.844,2.554c3.706,0,7.25-3.425,6.112-7.031-.715-2.4-3.154-3.606-5.527-4.3a2.507,2.507,0,0,0-.975-.331,5.166,5.166,0,0,0-1.5-.03Zm-247.875.18a3.746,3.746,0,0,0-3.706,3.456,12.383,12.383,0,0,0,.748,5.138,3.924,3.924,0,0,0,4.649,2.4c1.853-.511,3.349-2.4,2.6-4.3-.2-.691-.39-1.2-.553-1.893v-1.352c.163-1.893-1.853-3.606-3.739-3.456Zm57.937,31.07a3.444,3.444,0,1,0,0,6.881A3.444,3.444,0,1,0,343.451,221.935Zm224.857,16.8c-4.227-.06-7.868,1.082-8.713,5.2-.748,3.425,2.211,7.362,3.706,10.276,1.691,3.786,3.154,7.752,7.25,10.306,1.5-1.022,3.706-1.2,5.4-2.043,1.105-.511,2.211-1.562,3.316-2.073,4.292-2.043,5.2-1.713,7.055-5.829a27.755,27.755,0,0,0,1.5-4.808c.39-1.022,1.853-3.606,1.5-4.627-.553-2.764-6.893-4.3-9.1-4.657-2.959-.511-7.705-1.713-11.9-1.743Zm-390.67,59.044a12.4,12.4,0,0,0-5.007.9c-4.064,1.713-5.95,5.5-9.266,7.9-2.438,1.713-4.649,2.224-7.445,3.425-8.161,3.425-5.95,10.126-1.3,16.316,3.349,4.3,10.046,7.211,15.411,9.1,5.755,1.713,11.7,5.649,17.849,3.606,2.926-1.052,10.729-7.392,11.867-10.156,1.105-2.7-.358-5.649-.748-8.413-.748-3.906-.358-7.722-.2-11.839-.358,0,0-3.936-.163-4.447-1.3-3.095-2.048-2.584-5.95-3.095-5.007-.631-10.014-3.215-15.053-3.305ZM38.158,323.017c-4.584.361-10.989,3.035-14.078,3.305-5.365.511-10.924-1.382-15.606,2.043-7.023,7.722-11.867,19.05-3.316,27.825,7.966,8.053,24.71,5.138,31.212-3.786,3.121-4.447,11.119-25.751,5.527-28.846a6.6,6.6,0,0,0-3.771-.541Zm592.9,17.007a12.782,12.782,0,0,0-3.511.721c-8.161,2.7-12.615,20.583-8.713,27.1,3.706,6.01,12.257,9.1,18.37,12.38,4.1-5.349,0-19.081-.163-25.421C636.876,348.948,637.982,339.783,631.056,340.024Zm-76.209,25.751a4.506,4.506,0,0,0-2.666.9,14.8,14.8,0,0,0-3.544,3.906c-1.3,1.743-.943,3.966.943,4.808a4.2,4.2,0,0,0,5.2-1.022c.325-.511.715-1.022,1.105-1.713,0-.18.163-.18.358-.331a3.935,3.935,0,0,1,.943-.691,3.305,3.305,0,0,0,.162-4.808,3.778,3.778,0,0,0-2.5-1.052Zm-93.408,15.9c-1.528-.06-3.056-.03-4.617,0l-6.21.27c-3.739,0-9.3-.871-11.9,2.4-1.853,2.554-.2,10.276-.2,13.522-.163,7.211-4.227,21.334,1.886,27.494,2.926,2.915,7.966,2.915,12.225,2.915,7.25.18,9.1,0,14.5,4.117-1.658,3.095-5.755.871-7.25,3.786,4.649,5.138,17.1-5.138,21.913-6.7,8.356-2.734,12.615-4.808,16.711-12.53,5.2-9.435-3.9-11-9.3-17.338-4.227-5.319-7.413-12.019-14.305-15.114a33.808,33.808,0,0,0-13.46-2.824Zm76.632,17.548c-2.731-.09-5.4,2.975-3.186,5.529,2.8,3.456,8.746-.841,5.787-4.267a3.471,3.471,0,0,0-2.6-1.262ZM365.592,410.4c-.228-.15-.78,0-2.438.361-2.243.361-4.649.361-6.7,1.052-1.5,3.756-3.706,9.255,1.105,11.659,2.6,1.022,10.957,1.893,12.257-1.382.585-1.2-.91-3.425-1.463-4.447-.943-1.893-1.3-4.3-2.243-5.829-.358-.871-.293-1.292-.52-1.412Zm58.36,39.754c-5.365-.12-12.29,2.163-16.614,1.653-5.95,0-9.3-.18-10.014,5.649-.585,4.117.91,12.53,2.211,16.647A14.309,14.309,0,0,0,409,484.585c3.154,1.382,10.4,5.138,13.753,3.936,8.161-2.915,8.908-21.785,8.713-28.305-.163-3.786,1.3-6.37-2.764-8.924a9.69,9.69,0,0,0-4.747-1.142Zm197.969,1.983h-1.04c-3.349.511-7.445.691-9.494,3.606a5.871,5.871,0,0,0-.748,4.627c.2,1.2,1.138,2.764,1.138,4.117a3.563,3.563,0,0,0,4.259,3.786c5.2-1.022,12.062-6.851,11.347-12.169a3.3,3.3,0,0,0-3.186-2.764,3.519,3.519,0,0,0-2.276-1.2ZM177.8,460.1c-3.089,0-5.852,1.322-9.071,1.8-4.649.721-9.461,2.4-13.915,2.764-5.2.511-10.762-1.022-15.964-.331-8.746,1.2-15.248,9.615-16.354,17.488-1.853,12.38,5.2,13.732,15.606,16.647,5.755,1.743,8.551.691,14.11,1.052,4.1.18,6.86,3.095,10.957,3.606,5.4.691,13.915-3.426,16.711-7.722,2.959-4.808,1.105-12.891,10.209-11.508,7.8-.331,6.7-10.126,3.154-14.6-2.211-2.734-8.713-7.722-12.257-8.744A10.315,10.315,0,0,0,177.8,460.1Zm75.039,11.328c-6.99.331-18.532,8.113-18.012,12.47.39,4.117,9.1,9.946,12.257,12.35,2.6,1.893,6.7,7.031,9.851,7.392.2-5.5,1.853-8.744,1.3-14.062-.358-3.966-5.007-12.891-.553-15.625-.715-1.953-2.536-2.644-4.877-2.524Zm54.426,23.287a5.28,5.28,0,0,0-1.138.18,3.148,3.148,0,0,0-2.6,1.022c-2.926,3.095-4.812,7.542-3.511,11.659,1.658,4.988,6.7,6.37,11.7,5.5a3.7,3.7,0,0,0,2.764-3.245,18.65,18.65,0,0,0-4.259-14.093,3.7,3.7,0,0,0-2.926-1.022Zm-260.1,4.357a99.4,99.4,0,0,0-11.542.451c-6.145,7.722-3.349,17.518-2.048,27.1.163,2.073.553,4.117.91,6.19a35.155,35.155,0,0,0,1.138,3.786c1.3,3.1,1.463,9.075,5.365,10.276,5.4,1.743,6.7-3.606,8.746-6.52,5.007-7.212,17.979-35.006,6.112-40.325a29.435,29.435,0,0,0-8.648-.962Zm339.366,6.791c-2.211.18-4.259.18-5.365.691-13,5.138-13.558,14.6-16.354,25.931C361.3,546,357.4,554.266,369.1,557.361c4.617,1.2,13.525,4.988,18.922.511,3.706-10.126,8.161-20.072,11.7-30.379.748-2.4,3.706-9.255,3.511-11.508a6.286,6.286,0,0,0-2.048-4.447,17.853,17.853,0,0,0-5.755-.691c-4.064.331-7.8-.871-8.908-4.988Zm191.6,49.73c-3.511-.21-8.356,2.314-9.754,5.168-1.5,3.425-.943,8.564-.943,12.35,2.991.18,7.641-5.829,10.046-7.722,2.6-2.073,7.25-4.627,3.511-8.594A4.08,4.08,0,0,0,578.126,555.588Zm-372.2-1.292c-3.609.06-7.185.661-8.388,1.683-1.691,1.382-.975,4.3-2.6,5.679-1.5,1.382-5.592,1.532-7.445,2.043-3.349-1.713-1.658.541-2.6,1.382-.91.871-1.853,4.117-3.9,6.01-3.511,3.095-11.119,6.851-1.853,9.435,2.8.691,5.755-.331,8.551.361,3.154.841,6.5,3.245,9.1,4.958,4.454,2.915,10.209,9.435,14.858,3.966,2.764-3.275,2.959-13.4,3.9-17.518.715-4.3,3.316-13.221-.943-16.466C213.205,554.687,209.531,554.236,205.923,554.3Zm409.333,6.4c-5.072.391-11.282,9.315-13.525,11.779-3.316,3.756-20.028,14.573-15.931,19.892,7.575-7.872,18.532-3.936,26.335-9.615,3.349-2.4,9.461-15.926,7.608-19.051C618.506,561.388,616.946,560.576,615.255,560.7Zm-70.129,25.331c-3.9,0-5.4,5.138-8,7.542-2.959,2.764-5.2,4.988-5.007,7.392h41.226a67.907,67.907,0,0,0-1.691-6.881c-2.211-9.766-18.207-7.211-26.53-8.053Zm-208.405,6.01a11.7,11.7,0,0,0-4.942,1.2c-3.739,1.713-6.5,5.138-9.851,7.722h25.815l-.2-1.893s-2.959-4.117-3.154-4.447A12.089,12.089,0,0,0,336.721,592.037Z" transform="translate(0 0)" fill="#d2d8f4"/>
        <path id="Path_9-2" data-name="Path 9" d="M2.944,0C5.726,1.893,10,2.584,12.94,3.936c2.944,1.2,7.926,3.606,11.1,3.095A9.215,9.215,0,0,0,32.35,0Zm589.74,0a12.028,12.028,0,0,0-7.764,5.5c-2.426,4.447.162,8.744,4.432,11.328a4.193,4.193,0,0,0,4.432-.511A17.956,17.956,0,0,0,601,3.425,3.218,3.218,0,0,0,598.766.361L598.41,0ZM15.884,12.921C10.934,13.4,7.8,20.433,11.1,23.347c2.75-.331,4.432,1.713,6.632,2.734,3.526,1.893,7.408,3.606,10.9,5.319,7.6,3.966,15.722-.15,9.252-6.671-4.076-4.117-12.552-7.9-18.31-11a6.065,6.065,0,0,0-3.656-.811Zm76.184,8.954c-7.246.3-11,11.869-5.758,17.428,3.882-.331,6.826,3.275,9.964,5.319,5.37,3.606,11.1,6.7,16.628,10.306,11.646,7.392,23.1,1.382,12.746-10.457-6.47-7.722-19.572-14.934-28.08-20.793a9.126,9.126,0,0,0-5.5-1.8ZM591.649,64.543c-6.373-.06-13.587,2.1-15.787,5.829-2.588,4.3,2.944,20.433,7.182,22.145a8.948,8.948,0,0,0,3.882.18,33.564,33.564,0,0,1,6.858-2.584c3.882-.841,12.2.871,14.784-3.095,1.65-2.4.55-6.01-1.488-9.766A20.708,20.708,0,0,1,601.9,68.66a1.257,1.257,0,0,0-.356-.691c-.194-.331-.55-.511-.744-.841-1.876-1.743-5.37-2.584-9.155-2.614Zm-372.09,7.392c-2.232-.361-5.92,2.915-7.6,3.936-2.944,2.073-7.182,3.786-9.77,5.649-2.782,1.893-3.332.18-.938,4.988,1.682,3.275,2.394,7.061,4.626,10.126,7.376.691,18.116,2.254,20.7-6.34,1.294-4.3-.55-17.518-7.02-18.359Zm55.06,6.851a3.445,3.445,0,1,0,0,6.881A3.445,3.445,0,1,0,274.619,78.786Zm63.729,3.786c-3.882-.18-7.376,2.584-7.182,6.34.194,3.425,3.882,6.01,7.02,7.031,4.27,1.2,8.12-1.352,7.958-5.469a2.839,2.839,0,0,0-.388-1.382,7.381,7.381,0,0,0-7.376-6.52ZM304.931,94.231a3.688,3.688,0,0,0-3.688,3.456,11.718,11.718,0,0,0,.712,5.108,3.906,3.906,0,0,0,4.626,2.434c1.844-.511,3.332-2.4,2.588-4.3l-.55-1.893V97.686c.194-1.743-1.844-3.456-3.688-3.456Zm52.407,9.856c-3.235-.15-7.7,1.563-8.8,3.365-1.488,2.224-.938,5.679-.938,8.083,2.588.15,6.858-3.786,9.058-4.988,2.426-1.382,6.664-3.095,3.332-5.679A4.555,4.555,0,0,0,357.338,104.086ZM199.794,106.43a3.432,3.432,0,1,0,0,6.851A3.432,3.432,0,1,0,199.794,106.43ZM31.25,116.556a3.694,3.694,0,0,0-3.72,3.425,12.656,12.656,0,0,0,.744,5.168,3.9,3.9,0,0,0,4.626,2.4c1.844-.541,3.332-2.4,2.588-4.3-.194-.691-.388-1.2-.55-1.893v-1.382A3.469,3.469,0,0,0,31.25,116.556Zm540.73.511c-.938,3.606,4.206,10.306,5.5,13.732,1.521,3.786,2.976,9.946,8.152,6.01,3.882-2.915,2.426-13.552-1.1-16.316C581.2,117.939,575.862,117.758,571.98,117.067ZM13.943,136.148a7.938,7.938,0,0,0-4.335.992c-7.57,5.318-6.664,20.433-7.57,27.644-1.682,13.4,6.826,17.849,17.922,9.285,6.082-4.808,6.276-8.413,9.8-15.475,2.2-4.447,5.888-8.413,7.376-13.221C34.582,141.2,21.675,136,13.943,136.148Zm305.934,4.627c-7.408-.3-18.278,5.709-24.392,6.01-4.982-.18-11.969,2.224-15.14,5.829-4.076,4.627-1.844,10.637,2.232,15.445,8.12,10.126,20.316,4.958,30.28.511,7.958-3.606,18.5-17.157,12.94-24.91a7.185,7.185,0,0,0-5.92-2.885Zm85.857,4.958c-3.461.18-6.5,1.683-6.923,5.5-.388,3.245,1.1,6.34,1.844,9.435.356,1.893,2.782,2.915,4.626,2.4,2.944-.691,4.238-3.786,5.176-6.19a37.316,37.316,0,0,0,2.038-7.542,4.167,4.167,0,0,0-2.232-2.734,4.532,4.532,0,0,0-1.294-.691,17.707,17.707,0,0,0-3.235-.18ZM581.1,160.246a13.228,13.228,0,0,0-4.853.421c-4.27,2.073-6.7,9.435-5.952,13.732.744,4.477,5.92,10.306,7.958,14.243,3.138,6.37,6.47,13.4,10.158,19.742,2.782,4.808,4.82,8.233,9.252,10.126,7.57,2.915,16.984,3.095,23.454-.331,4.27-2.073,6.47-7.542,8.152-13.041a65.632,65.632,0,0,0,1.456-27.464c-1.65-13.221-18.278-12.2-29.018-14.784a147.9,147.9,0,0,0-20.607-2.644ZM450.183,174.579a3.429,3.429,0,1,0,0,6.851A3.429,3.429,0,1,0,450.183,174.579ZM30.474,192.217l-.906.03c-4.432.361-9.058,2.224-11.1,6.19-2.394,4.447.194,8.744,4.432,11.328a4.249,4.249,0,0,0,4.464-.511,17.95,17.95,0,0,0,7.182-12.891,3.177,3.177,0,0,0-2.2-3.245,2.522,2.522,0,0,0-1.876-.9Zm271.578,18.029c-6.341-.03-13.587,2.1-15.787,5.859-2.588,4.3,2.944,20.433,7.214,22.145a8.879,8.879,0,0,0,3.882.18,32.615,32.615,0,0,1,6.826-2.584c4.076-.691,12.39,1.052,14.978-2.734,1.65-2.4.55-6.01-1.488-9.8a20.685,20.685,0,0,1-5.176-8.564l-.55-1.052c-.194-.331-.55-.511-.744-.841-1.876-1.743-5.338-2.584-9.155-2.614Zm164.888,6.07a3.866,3.866,0,0,0-1.779.661,3.267,3.267,0,0,0-3.138,1.713c-2.038,3.425-5.176,7.542-1.132,10.817,2.588,2.043,6.308,3.425,9.446,4.447a4.069,4.069,0,0,0,4.238-1.533c3.138-4.988-.55-12.891-5.532-15.445a3.192,3.192,0,0,0-2.1-.661ZM246.7,216.8c-5.176,0-10.676,4.117-14.946,6.7l-2.782,2.043a9.449,9.449,0,0,0-2.394,5.5c-.194,1.052.162,2.254,0,3.456-.194,2.4-1.682,4.958-1.682,7.512,0,4.507,6.47,7.212,10.74,7.933,4.626.661,9.382-1.382,13.652-3.095,3.72-1.382,8.152-2.584,11.452-4.657,4.076-2.7,4.076-6.16,3.72-10.637a34.9,34.9,0,0,0-1.488-7.362c-.356-.361-.55-.691-.906-1.022A28.765,28.765,0,0,0,246.7,216.8Zm-141.952,12.83a3.572,3.572,0,0,0-3.106,2.434c-.55,2.073-.938,4.657.194,6.7.712,1.743,2.588,2.584,4.788,2.584,3.72,0,7.214-3.425,6.114-7.031-.744-2.4-3.138-3.606-5.564-4.3a1.858,1.858,0,0,0-.906-.331,5.114,5.114,0,0,0-1.52-.06Zm260.417,15.835c-2.2.18-4.238.18-5.37.691-12.94,5.138-13.49,14.573-16.24,25.931-3.526,13.522-7.214,21.785,4.432,24.88,4.432,1.022,13.3,4.808,18.666.511,3.688-10.126,8.12-20.072,11.646-30.379.744-2.4,3.688-9.285,3.494-11.508a6.3,6.3,0,0,0-2.038-4.447,18,18,0,0,0-5.726-.691c-4.044.331-7.764-.871-8.864-4.988Zm-339.093,4.3a3.445,3.445,0,1,0,0,6.881,3.458,3.458,0,1,0,0-6.911Zm263.491,1.322a3.558,3.558,0,0,0-3.106,2.464c-.55,2.043-.938,4.627.162,6.671a5.384,5.384,0,0,0,4.82,2.764c3.688,0,7.214-3.425,6.082-7.031-.906-2.4-3.138-3.606-5.532-4.477a1.857,1.857,0,0,0-.938-.33,5.148,5.148,0,0,0-1.488-.06Zm-215.58,2.795a3.445,3.445,0,1,0,0,6.881A3.445,3.445,0,1,0,73.984,253.876Zm42.055,2.945c-6.729.12-8.54,4.808-3.138,11.478,3.526,4.627,6.47,5.138,12.228,8.233,3.494,1.893,6.632,4.808,10.514,6.34,4.432-1.532,10.9-13.221,8.12-17.338-3.882-5.469-16.434-6.671-22.321-8.053a21.991,21.991,0,0,0-5.435-.661Zm496.055,5.889a4.109,4.109,0,0,0-2.426.6c-4.432,2.584-.194,8.924,4.238,6.37C617.529,267.578,615.394,262.98,612.094,262.71ZM280.022,275.27c-7.117.3-14.752,2.764-20.93,3.666-5.37.871-10.352-.331-12.746,4.988-1.488,3.425,2.782,12.35,3.332,13.041,4.626,4.117,10.158,2.224,15.69.331,7.958-2.915,19.41-6.851,25.33-13.732,1.294-2.224,1.65-4.447-.194-6.52a19.4,19.4,0,0,0-7.473-1.773Q281.527,275.2,280.022,275.27Zm-69.714,1.623h-.841a3.186,3.186,0,0,0-2.847,2.734c-.938,4.3,6.47,5.5,7.182,1.2.518-2.344-1.456-3.816-3.494-3.936Zm351.483,1.472c-3.235-.18-8.346.6-10.158.751-6.632.15-4.982,1.713-7.57,5.5-2.588,3.606-7.02,5.318-9.414,9.615-8.152.511-.194,5.319,1.456,7.512,1.876,2.4.744,7.572,4.27,5.709.55-.691,2.944-4.147,3.882-4.808,1.456-1.2,3.494-1.743,4.982-3.095,3.138-2.915,7.57-6.19,10.352-9.1,1.65-1.713,7.57-9.1,4.626-11.508a5.08,5.08,0,0,0-2.426-.571Zm-140.4,1.833a3.968,3.968,0,0,0-.874.06,3.134,3.134,0,0,0-2.879,2.614c-.906,4.477,6.47,5.679,7.214,1.2.518-2.344-1.456-3.756-3.494-3.876Zm-24.974,5.619c-.938,3.606,4.238,10.276,5.532,13.732,1.488,3.606,2.944,9.916,8.12,6.01,3.882-2.945,2.426-13.582-1.1-16.316-3.332-2.584-8.67-2.734-12.552-3.426Zm-267.211,9.135c-7.57.12-14.04,5.228-21.675,6.13-12.164,1.382-42.864-4.117-36.944,16.466,2.588-.511,7.958,2.073,10.352,2.945,2.038.841,4.238,2.554,6.276,3.245,1.294.361,4.82,0,5.37.331,5.176,3.095,5.92,6.01,12.584,6.19,6.276.18,11.808,1.382,16.822-3.756,4.044-4.147,5.5-9.465,9.22-13.912,4.982-5.829,17.178-14.423,1.294-17.338a18.262,18.262,0,0,0-3.3-.3Zm377.33,4.928a3.444,3.444,0,1,0,0,6.881A3.444,3.444,0,1,0,506.536,299.88Zm99.929,2.4a12.828,12.828,0,0,0-3.073.511,27.757,27.757,0,0,1-4.626,2.224c-4.626,3.095-8.508,7.9-13.49,10.156-2.976,1.352-6.664,1.863-9.414,3.906-2.782,2.1-4.432,5.529-7.408,7.752-.356.331-.744.511-1.1.841-5.726,6.01-15.334,13.582-15.722,18.209-.55,5.829,4.626,13.4,11.646,13.221,5.726-.18,10.9-5.5,16.078-7.542,4.82-1.893,10.158-2.584,15.14-4.3,7.764-2.584,7.764-3.095,10.934-9.465,2.75-5.649,3.882-11.839,6.47-17.308,2.006-4.3,3.688-4.657,4.238-9.976a17.631,17.631,0,0,0-.55-5.5,15.257,15.257,0,0,0-9.123-2.7Zm-302.8,16.106a8.37,8.37,0,0,0-4.464,1.8c-4.626,3.065-6.276,8.413-9.252,12.68-2.394,3.606-5.726,7.572-7.764,11.178-1.65,2.915,2.232,7.722,4.076,8.744,3.688,1.893,9.058,2.4,12.94,3.936,4.238,1.562,9.414,4.477,14.234,2.4,3.688-12.53,3.332-20.913-2.782-32.272-2.2-3.966-3.4-8.564-6.955-8.474Zm41.214,3.185a4.592,4.592,0,0,0-1.262,0,6.448,6.448,0,0,0-1.941.962c-1.035.571-2.394.511-3.138,1.713-1.65,2.764-4.044,5.829-2.75,9.1a6.442,6.442,0,0,0,3.688,3.425c1.294.511,3.138.871,4.076,1.713,1.65,1.382,4.626,1.382,5.726-.691,2.394-4.447.744-11.959-3.332-15.775a1.978,1.978,0,0,0-1.068-.451ZM239.746,333.2a8.166,8.166,0,0,0-4.3.992c-7.57,5.168-6.664,20.433-7.57,27.644-1.488,13.4,7.02,17.849,17.922,9.285,6.082-4.808,6.276-8.413,9.8-15.445,2.2-4.477,5.888-8.413,7.376-13.221-2.556-4.207-15.463-9.4-23.195-9.255ZM92.78,349.309c-6.049.391-6.47,3.726-6.276,10.637.162,6.881.55,13.732,1.294,20.433.55,4.988,5.176,11.689,11.258,12.019,6.276-1.022,14.978-1.893,20.866-4.3,5.92-2.4,8.508-9.255,10.19-14.573,1.456-4.808,5.726-12.019.906-16.316-2.782-2.584-12.39-4.808-16.272-5.5a146.956,146.956,0,0,0-19.022-2.4,24.654,24.654,0,0,0-2.944,0Zm109.311,5.619c-.421-.12-1.391.06-4.367.391-3.882.361-8.282.361-11.97,1.022-2.588,3.786-6.7,9.1,2.006,11.689,4.432,1.2,19.41,2.073,21.8-1.382.938-1.2-1.65-3.425-2.588-4.447-1.65-1.893-4.464-7.121-4.885-7.272ZM150.977,361.9a2.884,2.884,0,0,0-.906.3c5.726,6.01,1.456,13.371,5.532,19.561,1.65,2.584,12.39,8.053,15.14,7.212,8.152-2.764-3.138-11.148-5.726-13.552C162.429,372.836,155.765,361.358,150.977,361.9ZM496.6,353.635c-1.876-.06-4.626,3.906-6.146,4.988-2.394,1.893-8.152,1.022-5.92,4.3.194.661,7.02,6.52,8.67,7.873,3.332,2.764,7.052,6.7,10.352,9.285,2.038,1.532,10.19,6.52,12.584,3.606,1.488-1.713-.55-9.435-.744-11.689-.55-6.16-2.232-4.447-6.276-6.851-4.076-2.224-6.114-6.19-10.74-8.263-.291-2.344-.97-3.215-1.779-3.245Zm-89.415,23.2a3.989,3.989,0,0,0-1.812.661,3.38,3.38,0,0,0-3.138,1.713c-2.038,3.095-5.176,7.212-1.1,10.667,2.588,2.043,6.276,3.426,9.414,4.447a4.153,4.153,0,0,0,4.27-1.532c3.138-4.988-.582-12.891-5.564-15.475a3.4,3.4,0,0,0-2.07-.481Zm-125.356,14.6-.841.03a3.127,3.127,0,0,0-2.847,2.644c-.938,4.3,6.47,5.5,7.182,1.2C285.845,392.968,283.871,391.556,281.833,391.436ZM133.994,404.447c-2.491.15-5.985,2.554-9.446,3.4-4.626,1.052-9.382.871-14.234,4.117-5.726,3.786-9.382,9.285-13.652,14.6-1.844,2.4-5.176,5.649-5.014,8.233.194,2.073,4.626,3.426,6.114,4.627,2.944,2.584,7.408,9.8,13.49,7.9,2.944-1.022,5.532-4.117,7.764-6.851,3.882-4.657,13.684-14.6,15.334-18.209,2.976-6.16,4.27-9.615,2.976-14.754-.647-2.4-1.812-3.125-3.332-3.065ZM56.839,418.9a17.04,17.04,0,0,0-6.017.962c-19.41,6.7-14.428,26.442-13.846,41.2.162,7.722,2.588,18.029,7.376,24.369,6.276,8.263,7.764.361,13.878,2.073,4.044-5.5,7.376-11.839,10.9-17.518,4.044-6.16,9.576-14.423,8.864-21.454-.97-10.817-8.023-29.117-21.157-29.627Zm348.021,3.576c-6.082.811-3.138,16.617-2.167,19.02,5.726.18,6.082-4.988,6.276-7.722,0-1.713,1.488-9.615-.906-10.637a5.819,5.819,0,0,0-3.235-.661Zm48.784,40.264a5.775,5.775,0,0,0-1.973.391c-4.626,1.532-7.214,12.019-5.014,15.625,2.038,3.606,7.052,5.469,10.546,7.362,2.232-3.095-.194-10.968-.194-14.754,0-3.456.582-8.744-3.364-8.654Zm95.95,4.808c-4.206-.06-7.829,1.052-8.67,5.2-.744,3.425,2.232,7.362,3.688,10.276,1.844,3.786,3.332,7.722,7.214,10.306,1.488-1.022,3.688-1.2,5.37-2.043,1.1-.541,2.2-1.562,3.3-2.073,4.27-2.073,5.176-1.713,7.02-5.829A26.6,26.6,0,0,0,569,478.575c.388-1.022,1.844-3.606,1.488-4.627-.55-2.764-6.858-4.3-9.058-4.657-2.944-.511-7.667-1.713-11.84-1.743Zm-61.4,3.486c-6.7.15-8.476,4.808-3.073,11.478,3.688,4.627,6.632,5.168,12.2,8.083,3.494,1.893,6.632,4.808,10.514,6.34,4.432-1.532,10.9-13.221,8.152-17.338-3.882-5.319-16.466-6.52-22.386-7.9a22,22,0,0,0-5.4-.661Zm-476.936.12-.906.03A15.311,15.311,0,0,0,0,475.991v9.435a14.6,14.6,0,0,0,3.526,3.095,4.082,4.082,0,0,0,4.432-.511A17.953,17.953,0,0,0,15.14,475.15c.582-1.382-.55-2.584-2.006-3.095a2.522,2.522,0,0,0-1.876-.9ZM647,475.991a16.072,16.072,0,0,0-.938,1.382,7.151,7.151,0,0,0,.938,8.053ZM203.029,488.912a7.185,7.185,0,0,0-3.817.992c-2.782,1.713-16.984,22.326-20.51,29.357-4.044,8.233,16.272,19.381,19.766,20.583,4.076,1.382,7.764-.511,11.84-.841,6.664-.691,15.528,1.713,21.448-2.254a43.15,43.15,0,0,1-1.294-9.766c.356-3.966,3.3-5.679,4.238-8.774,1.488-4.808-5.532-11.659-8.67-14.934-5.564-5.829-8.7-9.916-17.016-12.68-2.2-.751-4.044-1.653-5.985-1.713Zm241.622,7a3.43,3.43,0,1,0,0,6.851A3.43,3.43,0,1,0,444.651,495.913Zm-90.677.09c-3.364.361-10,4.147-12.1,5.048-7.02,2.764-4.432,3.786-5.726,8.924-1.1,4.988-4.982,8.414-5.726,13.732-8.314,3.606,2.232,5.679,4.982,7.392,3.138,1.713,4.27,7.542,7.214,4.117.388-.511,1.488-5.138,2.038-6.19,1.1-1.863,9.058-14.724,10.9-19.05,1.1-2.554,3.882-12.68-.356-13.882a2.951,2.951,0,0,0-1.229-.09ZM.194,502.944v0Zm550.338,8.714a12.25,12.25,0,0,0-4.982.9c-4.076,1.713-5.92,5.5-9.252,7.9-2.394,1.713-4.626,2.224-7.376,3.426-8.152,3.425-5.92,10.126-1.294,16.316,3.3,4.3,9.964,7.211,15.334,9.1,5.338,1.863,11.258,5.649,17.372,3.606,3.494-.871,11.1-7.211,12.2-10.156,1.1-2.734-.388-5.649-.744-8.414-.744-3.906-.356-7.722-.194-11.839-.356,0,0-3.936-.194-4.447-1.294-3.095-2.006-2.584-5.888-3.095-5.014-.631-10-3.215-14.978-3.305Zm-296.844,11.9-1.068.15a3.18,3.18,0,0,0-2.782,3.095,2.754,2.754,0,0,0-.906,3.095c.744,3.245,1.488,6.851,4.788,8.594a7.386,7.386,0,0,0,5.014.15c1.294-.331,2.75-1.352,4.238-1.352,2.232,0,4.432-2.073,3.688-4.3-1.359-4.507-7.635-9.766-12.972-9.435ZM4.917,526.772c-.421-.15-1.391.03-4.367.391H.194v13.732c5.338,0,10.9-.541,12.2-2.4.906-1.2-1.682-3.456-2.588-4.477-1.682-1.893-2.394-4.3-3.882-5.829-.744-.871-.615-1.292-1.035-1.412Zm642.083.21c-3.882.331-7.958.331-11.646,1.022-2.588,3.786-6.664,9.285,2.038,11.689A42.153,42.153,0,0,0,647,540.715Zm-37.947.541c-6.082.841-3.138,16.767-2.167,19.02,5.92,0,6.308-5.138,6.308-7.722,0-1.713,1.456-9.615-.938-10.637A5.846,5.846,0,0,0,609.053,527.524Zm-185.689,8.894a3.444,3.444,0,1,0,0,6.881C428.023,543.3,428.023,536.418,423.364,536.418Zm17.4,9.8c-3.72,2.554-6.308,15.625-2.426,18.69,5.37,4.477,17.76,2.073,23.842,1.713,11.29-.511,13.49-6.52,4.82-12.68-4.982-3.456-7.958-3.095-14.234-4.477C448.695,548.617,444.813,546.544,440.769,546.213Zm194.747.331c-2.911.361-3.494,3.095-4.206,5.679-1.132,3.936-1.876,7.873-2.782,11.839-1.488,5.5-.744,14.934,3.138,19.381,2.782,3.095,6.082,5.318,9.058,8.083,2.038,2.043,4.044,4.808,6.276,7.031V553.575a19.921,19.921,0,0,0-1.844-1.2c-1.844-1.352-6.858-6.01-9.608-5.829Zm-121.377.18c-4.626,0-4.626,6.851,0,6.851A3.429,3.429,0,1,0,514.138,546.724ZM0,553.575v44.982l2.232,2.073c.162.15.356.15.55.331H32.156c2.782-9.8-5.176-26.262-8.864-31.58,0,0-4.82-7.9-5.726-8.774-2.782-2.734-6.276-2.915-10.158-3.756A20.287,20.287,0,0,1,0,553.575Zm333.658.361c-4.917-.21-13.328,17.879-15.043,21.785,9.22,8.924,20.122-12.86,17.372-19.561C335.34,554.657,334.564,554,333.658,553.936Zm158.289,11.148a3.685,3.685,0,0,0-3.688,3.425,11.593,11.593,0,0,0,.744,5.168,3.88,3.88,0,0,0,4.594,2.4c1.876-.511,3.332-2.4,2.588-4.3-.162-.691-.356-1.2-.55-1.893v-1.382C496.023,566.8,493.79,565.084,491.946,565.084Zm34.647,5.288c-.421-.15-1.391.03-4.335.391-3.882.331-8.314.331-12,1.022-2.782,3.606-6.858,9.1,2.006,11.659,4.432,1.2,19.41,2.073,21.836-1.352.906-1.2-1.876-3.456-2.588-4.477-1.682-1.893-2.426-4.3-3.882-5.829-.744-.871-.615-1.292-1.035-1.412Zm69.391,29.747a24.693,24.693,0,0,0-3.494.661h5.726a2.882,2.882,0,0,0-2.232-.691Z" transform="translate(0 0)" fill="#7985b9"/>
        <path id="Path_10-2" data-name="Path 10" d="M421.456,0a27.624,27.624,0,0,1-4.594,2.4c-3.332,1.382-13.328,4.3-14.622,7.9-1.488,3.906,2.038,6.34,5.176,8.924,5.014,3.936,10.19,7.362,14.978,11.328,6.858,5.469,20.9,10.968,29.762,9.075,6.114-1.352,11.646-4.117,17.566-5.649,5.726-1.562,13.134-2.073,18.666-4.477,4.82-2.043,8.864-7.031,13.134-10.126,3.688-2.734,10.352-7.362,11.84-11.659A12.741,12.741,0,0,0,513.912,0ZM241.266,0a21.839,21.839,0,0,0,10.352,10.306c9.77,5.318,11.969-2.915,19.184-7.392C272.484,1.893,274.134.871,275.816,0ZM48.525,0a16.941,16.941,0,0,0,.841,4.117,5.932,5.932,0,0,0,9.608,1.713,4.385,4.385,0,0,0,.906-1.2A6.989,6.989,0,0,0,61.465,0ZM276.334,32.332c-1.682,0-3.041,1.052-5.5,4.387-3.72,4.627-7.958,8.053-11.322,12.861a77.573,77.573,0,0,0,8.9,14.243c4.27,4.988,6.114,5.168,11.84,4.657,11.646-1.052,25.524,0,22.192-14.093-.744-2.734-.582-5.469-.971-7.873-.712-4.117.388-2.915-3.106-5.829-4.27-3.786-9.252-4.808-14.428-6.19-3.882-1.022-5.92-2.163-7.6-2.163Zm76.767,4.3-2.038.03a28.321,28.321,0,0,0-10.546,2.794c-2.426,1.2-10.74,5.168-10.9,8.083-.194,2.584,2.911,3.606,4.206,5.5,1.132,1.713.971,4.447,2.07,6.01,5.726,8.233,14.04,7.362,21.8,2.734,4.238-2.584,11.29-8.083,14.04-12.35.938-1.382,2.782-2.4,2.426-4.477-1.488-4.447-4.076-1.2-5.758-5.649-5.823-1.322-10.546-2.584-15.3-2.674Zm187.4.451c-12.358,0-20.866.3-31.218,6.671-8.152,5.168-16.822,10.306-14.234,19.922,2.038,7.542,2.394,16.136,8.12,22.3,4.27,4.627,12.2,10.637,18.5,12.861,9.058,2.945,20.51-.15,27.174-6.671,4.788-4.808,11.452-10.306,13.3-17.338.938-3.936-.194-18.54-2.944-21.454-2.038-2.224-7.408-4.3-10-6.01-2.944-2.043-3.332-1.352-5.532-4.447C542.38,41.2,542.38,38.792,540.5,37.079ZM156.93,56.611c-.291-.03-.582,0-.906,0-4.432.361-9.058,2.254-11.1,6.19-2.2,4.477.388,8.594,4.626,11.178a4.188,4.188,0,0,0,4.432-.541A17.959,17.959,0,0,0,161.2,60.577c.194-1.382-.938-2.584-2.394-3.095a2.522,2.522,0,0,0-1.876-.9ZM78.707,70.973a23.285,23.285,0,0,0-4.95.421c-4.432.841-6.276,2.554-9.8,5.319-7.02,5.649-15.528,10.968-5.37,17.157,0,0,1.682-.511,7.958-4.117,4.27-2.584,17.21-8.744,17.21-14.423C83.981,72.115,81.522,71.124,78.707,70.973ZM441.674,75.3c-.226-.15-.776.03-2.459.391-2.2.331-4.626.3-6.664,1.022-1.456,3.756-3.688,9.255,1.132,11.659,2.394,1.2,10.708,2.073,12-1.352.55-1.2-.906-3.456-1.488-4.477-.712-1.893-1.1-4.117-2.038-5.829-.324-.871-.259-1.292-.485-1.412ZM146.287,91.166c-4.205-.06-8.087,1.262-8.573,5.619-.356,3.275,1.132,6.34,1.844,9.435.388,1.893,2.782,2.915,4.626,2.4,2.976-.691,4.27-3.756,5.176-6.16a33.762,33.762,0,0,0,2.038-7.572,2.905,2.905,0,0,0-2.038-2.915,4.88,4.88,0,0,0-1.294-.691q-.886-.1-1.779-.12Zm117.948,1.623c-1.391-.03-2.847,0-4.335.06.938,6.671-1.294,15.264,4.076,20.433,6.114,5.649,21.448,16.286,30.118,13.522,12.034-3.906-4.238-16.106-7.57-21.935C281.671,96.3,274,93.119,264.2,92.788Zm-205.649,15.5a3.429,3.429,0,1,0,0,6.851A3.429,3.429,0,1,0,58.586,108.293Zm551.5.751a64.814,64.814,0,0,0-5.047,2.674c-1.682,2.734-4.076,5.829-2.782,9.1a6.861,6.861,0,0,0,3.526,3.425c1.294.511,3.138.841,4.044,1.713,1.682,1.352,4.626,1.382,5.758-.691,2.588-4.447,1.844-13.041-3.17-15.775a3.784,3.784,0,0,0-2.329-.451ZM437.954,120.823c-3.17-.15-7.667,1.5-8.9,3.425-1.488,2.224-.938,5.649-.938,8.053,2.588.18,6.858-3.786,9.058-4.988,2.426-1.352,6.664-3.065,3.332-5.649a4.276,4.276,0,0,0-2.588-.841Zm-180.092,2.7h-.906a13.094,13.094,0,0,0-10.9,6.01c-2.426,4.507.162,8.774,4.432,11.358a4.184,4.184,0,0,0,4.432-.511,17.956,17.956,0,0,0,7.214-12.891c.194-1.352-.938-2.554-2.394-3.095a2.522,2.522,0,0,0-1.876-.9Zm199.988,18.84c-3.882-.18-7.376,2.554-7.214,6.34.194,3.425,3.882,6.01,7.052,7.031,4.238,1.2,8.12-1.382,7.926-5.5a3.243,3.243,0,0,0-.356-1.352A7.858,7.858,0,0,0,457.849,142.368Zm159.291,2.374-.841.03a3.317,3.317,0,0,0-2.944,2.644c-.938,4.3,6.47,5.469,7.214,1.2.485-2.344-1.423-3.786-3.429-3.906ZM481.368,163.7c-3.882,0-5.37,5.168-7.958,7.572-4.626,4.447-7.57,7.031-2.588,12.32,2.782,2.945,7.02,7.212,10.74,8.113a24.294,24.294,0,0,0,14.04-.361c2.232-.691,3.882-2.4,5.92-3.425,2.038-1.2,6.276-1.893,7.57-3.786,1.844-2.915-.744-9.435-1.294-12.35-2.2-9.8-18.116-7.212-26.43-8.083ZM251.683,178.756c-.421-.12-1.391.06-4.335.391-3.882.361-8.314.361-12.034,1.022-2.588,3.786-6.632,9.285,2.038,11.689,4.432,1.2,19.41,2.043,21.8-1.382.938-1.2-1.65-3.425-2.588-4.447-1.65-1.893-2.394-4.3-3.882-5.859C251.974,179.327,252.1,178.906,251.683,178.756Zm-171.1,7.272c-5.888.331-10.9,4.808-16.434,9.615-5.176,3.906-11.29,5.649-14.784,12.019C45.1,215.174,46.034,229.6,52.86,234.4a3.176,3.176,0,0,0,.938.511,22.7,22.7,0,0,0,3.332.871c2.944.18,6.276-1.022,9.252-2.4,2.944-2.224,5.338-5.318,8.67-8.053C82.46,219.14,85.4,218.119,88.93,207.3c2.75-8.594,5.176-11.659-2.426-17.518a28.037,28.037,0,0,0-5.92-3.756Zm360.735,7.091a3.914,3.914,0,0,0-1.941.962,3.683,3.683,0,0,0-3.106,1.713c-1.682,2.764-4.076,5.829-2.782,9.1a6.643,6.643,0,0,0,3.526,3.425c1.294.511,3.138.871,4.044,1.713,1.682,1.382,4.626,1.382,5.726-.691,2.426-4.447,1.844-13.041-3.138-15.775a3.784,3.784,0,0,0-2.329-.451Zm15.463,47.145c-4.982.15-13.684,7.362-16.272,11.118-1.65,2.584-6.082,11.508-5.726,14.273.744,4.627,16.272,22.3,21.448,23.678,6.47,1.532,8.864-3.966,12.2-8.774,3.882-5.469,4.432-7.873,5.37-14.062.906-6.52,2.588-9.074-3.332-14.062-2.588-2.224-10.74-12.53-13.684-12.169Zm-128.3,1.142-.906.03c-4.27.18-8.9,2.073-10.9,6.01-2.426,4.477.162,8.774,4.432,11.328a4.074,4.074,0,0,0,4.432-.511,17.959,17.959,0,0,0,7.214-12.861,3.143,3.143,0,0,0-2.426-3.095A2.519,2.519,0,0,0,328.482,241.406ZM177.246,253.245c-4.173-.03-7.829,1.082-8.637,5.2-.744,3.425,2.2,7.362,3.688,10.306,1.844,3.906,3.138,7.873,7.214,10.276,1.456-1.022,3.688-1.2,5.338-2.043,1.132-.541,2.232-1.562,3.332-2.073,4.27-2.073,5.176-1.713,7.02-5.829a27.858,27.858,0,0,0,1.488-4.808c.356-1.022,1.844-3.606,1.488-4.627-.55-2.584-6.858-4.117-9.058-4.627C186.142,254.477,181.451,253.305,177.246,253.245ZM81.684,277.193a3.289,3.289,0,0,0-3.106,2.344c-.582,2.073-.938,4.627.162,6.7a5.417,5.417,0,0,0,4.82,2.734c3.688,0,7.214-3.425,6.082-7.031-.712-2.4-3.138-3.606-5.5-4.3a2.421,2.421,0,0,0-.97-.3A4.653,4.653,0,0,0,81.684,277.193Zm378.3,33.413c-4.206.24-8.929,2.163-12.811,2.915-5.92,1.2-13.49,2.915-18.666,6.01-5.92,3.606-12.94,18.179-9.446,24.7,10.352,18.87,46.034-21.454,42.7-33.654a13.611,13.611,0,0,0-1.779,0ZM387.2,321.244a11.729,11.729,0,0,0-7.7,3.606c-1.294,1.2-.906,2.915-.162,4.117a20.232,20.232,0,0,0,12.39,8.924,3.465,3.465,0,0,0,3.688-1.532,3.272,3.272,0,0,0,1.456-2.254c.388-4.117-.712-8.744-4.594-11.328a8.858,8.858,0,0,0-5.079-1.5Zm137.779.781a4.169,4.169,0,0,0-1.294.09c-2.75.511-4.982,3.065-7.02,4.808,1.682,1.863,7.6,2.043,10.19,2.7,2.75.721,6.826,2.614,6.632-1.5C533.322,325.42,528.211,322.3,524.976,322.025Zm66.188,40.054c-3.558-.21-8.346,2.314-9.608,5.168-1.488,3.425-.938,8.564-.938,12.32,2.976.361,7.408-5.8,10-7.692,2.588-2.073,7.214-4.627,3.526-8.594A4.363,4.363,0,0,0,591.164,362.079Zm-390.5,20.613c-3.494.18-6.5,1.683-6.923,5.469-.388,3.275,1.1,6.37,1.844,9.435.356,1.893,2.782,2.915,4.626,2.4,2.944-.691,4.205-3.756,5.176-6.16a35.509,35.509,0,0,0,2.006-7.572,2.876,2.876,0,0,0-2.006-2.915,13.38,13.38,0,0,0-1.488-.511,17.5,17.5,0,0,0-3.235-.15ZM596.372,392.1a12.743,12.743,0,0,0-4.853,1.563c-4.044,1.713-7.764,3.606-11.808,5.319-5.564,2.224-13.134,8.744-14.428,14.243-.906,3.936-.55,7.722-1.294,11.659-.744,3.786-2.394,8.083-2.2,11.869,0,3.245,2.038,7.031,2.944,10.276.744,2.915,1.844,7.9,4.238,9.946,13.134,11.178,29.05-16.106,32.188-24.519,0,0,3.688-8.413,3.882-9.615.55-3.786-1.488-6.52-3.138-9.8a18.489,18.489,0,0,1-1.844-9.435c0-2.224.906-8.714-1.132-10.457a3.349,3.349,0,0,0-2.556-1.052ZM244.21,393.84c-1.132,3.606,4.044,10.276,5.532,13.732,1.488,3.606,2.976,9.916,8.152,6.01,3.882-2.945,2.394-13.582-1.132-16.316-3.332-2.584-8.67-2.734-12.552-3.425Zm-79.257,14.573c-3.558-.21-8.411,2.314-9.673,5.138-1.488,3.455-.938,8.594-.938,12.38,2.976.331,7.408-5.829,10-7.722,2.588-2.073,7.214-4.627,3.526-8.594a4.122,4.122,0,0,0-2.911-1.2ZM644.573,409.8a17.3,17.3,0,0,0-14.946,6.7c-7.02,8.924-.55,23.317,10.158,27.434A41.92,41.92,0,0,0,647,445.492V409.976Q645.792,409.834,644.573,409.8ZM0,409.975v35.517c9.058,1.352,22.936,1.893,24.392-2.4,1.294-3.786-5.338-11.839-6.632-15.445-1.682-4.808-.744-10.126-5.176-13.732A39.521,39.521,0,0,0,0,409.975Zm216.163,13.582c-3.623.06-7.182.661-8.411,1.683-1.618,1.382-.906,4.3-2.588,5.649-1.456,1.382-5.5,1.563-7.376,2.073-3.3-1.713-1.65.511-2.588,1.382-.906.841-1.844,4.117-3.882,6.01-3.494,2.915-11.064,6.851-1.844,9.435,2.782.661,5.726-.361,8.508.331,3.138.871,6.47,3.275,9.058,4.988,4.432,2.915,10.158,9.435,14.784,3.906,2.782-3.245,2.976-13.341,3.882-17.458.744-4.3,3.332-13.221-.906-16.5-1.391-1.112-5.047-1.593-8.637-1.5Zm302.472,1.262c-7.279-.06-13.684,3.7-21.545,7.121-13.49,6.01-22.936,8.414-18.31,18.69,1.844,4.117,4.076,12.861,11.29,14.062,10.708-3.606,22-6.52,32.9-10.457,2.588-1.022,10.158-3.425,12-4.627a6.573,6.573,0,0,0,2.588-4.3,13.367,13.367,0,0,0-3.138-4.627c-2.782-2.915-4.076-6.19-1.294-9.615a30.284,30.284,0,0,0-3.882-3.426,23.307,23.307,0,0,0-10.643-2.824Zm-179.09,12.44a78.753,78.753,0,0,0-11.614.511c-6.082,7.722-3.332,17.488-2.038,27.1a34.864,34.864,0,0,0,2.038,9.946c1.294,3.095,1.488,9.1,5.37,10.306,5.37,1.713,6.664-3.606,8.67-6.52,5.014-7.212,17.954-35.006,6.114-40.324a28.163,28.163,0,0,0-8.54-1.022Zm-43.317,27.584c-.421-.15-1.391.03-4.335.391-3.882.33-8.314.3-12.034,1.022-2.588,3.756-6.826,9.255,2.038,11.659,4.432,1.2,19.41,2.073,21.836-1.352.906-1.2-1.682-3.456-2.588-4.507-1.682-1.863-2.426-4.267-3.882-5.8C296.52,465.384,296.649,464.963,296.229,464.843Zm308.263,15.024a13.649,13.649,0,0,0-2.038.12c-3.138.331-13.49,2.734-15.528,4.808-3.688,3.425-9.058,25.721-6.858,30.2,2.782,5.649,8.9,4.117,14.978,3.426a30.326,30.326,0,0,0,15.172-4.988c5.92-3.426,9.252-3.756,9.8-11.118.162-3.305,3.882-15.625,1.844-17.518-2.75-3.155-12-4.868-17.372-4.9Zm38.335,19.5c-3.494-.21-8.314,2.314-9.705,5.138-1.456,3.455-.906,8.594-.906,12.38,2.944.15,7.376-5.859,9.964-7.722,1.876-1.382,4.464-3.095,4.82-5.168v-1.022a6.149,6.149,0,0,0-1.294-2.4,4.085,4.085,0,0,0-2.879-1.2Zm-141.3,9.826c-7.57.12-14.04,5.228-21.642,6.13-12.2,1.382-42.9-4.117-36.976,16.466,2.588-.511,7.958,2.073,10.352,2.945,2.038.841,4.27,2.554,6.308,3.065,1.294.361,4.788,0,5.338.361,5.176,3.095,5.92,6.01,12.584,6.16,6.276.18,11.84,1.382,16.822-3.756,4.076-4.117,5.532-9.435,9.252-13.912,4.788-5.829,16.984-14.243,1.294-17.158a18.351,18.351,0,0,0-3.332-.3ZM88.542,519.11a3.429,3.429,0,1,0,0,6.851A3.429,3.429,0,1,0,88.542,519.11Zm202.026,4.9a10.7,10.7,0,0,0-2.2.24,2.982,2.982,0,0,0-2.588,2.584,3.04,3.04,0,0,0-1.1,3.245c.938,3.786,1.65,8.924,7.214,8.594a31.132,31.132,0,0,0,10.158-2.915,3.341,3.341,0,0,0,1.844-3.786c-1.294-4.808-7.958-8.023-13.328-7.963ZM170.614,535.036a3.585,3.585,0,0,0-3.138,2.4c-.55,2.1-.906,4.657.194,6.731a5.611,5.611,0,0,0,4.82,2.554c3.688,0,7.182-3.425,6.082-7.031-.744-2.4-3.138-3.606-5.532-4.3-.388-.15-.582-.331-.938-.331a5.116,5.116,0,0,0-1.488-.03Zm86.213,19.231c-4.044-.09-7.764.541-10.417,2.584-3.332,2.584-3.688,7.212-4.076,11.178-.744,6.671-.55,8.413-5.338,13.011-3.332-1.713-.55-5.469-3.688-7.031-5.758,3.966,4.432,16.136,5.726,20.613.712,2.4,1.456,4.447,2.2,6.34h34.582c4.788-2.4,9.414-5.138,12.2-9.615,4.238-7.031,4.076-14.423,4.432-22.3.194-3.456,1.65-8.594-1.844-11-2.588-1.893-10.9-.841-14.622-1.2C271.125,556.43,263.555,554.386,256.827,554.266Zm206.684,29.267c-2.264,0-4.27.12-5.823.271,0,0-14.4.691-16.24,1.2-5.758,1.713-8.508,5.829-12.2,9.946a27.484,27.484,0,0,1-7.764,6.01h92.2c-3.559-14.273-34.291-17.638-50.175-17.428ZM55.286,593.419a6.632,6.632,0,0,0-5.176,1.713c-1.488,1.382-1.779,3.756-1.585,5.829h12.94a6.64,6.64,0,0,0-1.391-5.138,7.285,7.285,0,0,0-4.788-2.4Z" transform="translate(0 0)" fill="#4f5672"/>
        <path id="Path_11-2" data-name="Path 11" d="M85.727,0a62.953,62.953,0,0,0,15.69,9.1c22.936,8.413,60.98,16.136,72.076-6.01A18.639,18.639,0,0,0,174.4,0ZM210.049,5.679c-10.352,2.4-50.984,18.54-33.256,31.25,3.882,2.734,8.314,5.319,12.39,8.053,3.526,2.4,7.764,4.117,11.646,6.37a39.619,39.619,0,0,0,7.57,1.893c7.214,1.2,15.528-1.052,18.86-7.212,1.844-3.606,1.65-6.7.906-10.156a21.091,21.091,0,0,1-2.782-5.138c-2.006-6.7-4.788-24.549-15.334-25.06ZM647,95.973c-7.214-.15-13.684,2.254-14.428,9.8-.55,5.679,2.038,11,3.17,16.5.55,3.245,4.788,4.958,7.926,4.117A10.1,10.1,0,0,0,647,124.82ZM0,96.334V125.18A19.746,19.746,0,0,0,5.92,115.9a56.556,56.556,0,0,0,3.332-13.041c.162-2.224-1.488-4.117-3.526-5.168a5.937,5.937,0,0,0-2.394-1.022A25.569,25.569,0,0,0,0,96.334Zm401.172,7.272c-6.147-.09-13.911,3.846-18.375,5.258-10.9,3.606-11.808,12.71-2.006,18.87,5.5,3.456,8.282,2.4,14.946,2.764,4.076.18,8.314,2.043,12.39,1.532,3.138-4.627,2.944-23.5-1.488-26.773a9.018,9.018,0,0,0-5.467-1.653ZM539.63,115.625c-3.073,0-5.823,1.322-9.026,1.8-4.626.721-9.414,2.4-13.846,2.764-5.176.511-10.708-1.022-15.884-.331-8.508,1.2-14.978,9.615-16.272,17.518-1.844,12.35,5.176,13.732,15.528,16.647,5.726,1.532,8.476.691,14.04,1.022,4.044.18,6.826,3.095,10.9,3.606,5.338.691,13.846-3.425,16.628-7.722,2.944-4.808,1.1-12.891,10.158-11.508,7.764-.331,6.632-10.126,3.138-14.6-2.232-2.734-8.7-7.722-12.2-8.744a10.243,10.243,0,0,0-3.17-.481ZM85.986,138.041c-3.3.27-6.793,2.7-9.705,3.606-2.394.871-4.788-.331-5.694,4.988-.744,3.425.356,6.851.906,10.637a10.181,10.181,0,0,0,.744,2.4c2.038,4.117,4.626,2.254,7.214.361,3.688-2.764,8.864-6.7,11.646-13.582a9.991,9.991,0,0,0-.194-6.52,5.944,5.944,0,0,0-4.917-1.893Zm116.525,8.2c-3.267.24-8.185,2.073-10,2.464-6.47,1.022-4.238,2.734-5.726,7.9-1.294,4.808-5.176,7.512-6.114,13.221-7.926,1.863,1.488,6.52,3.882,8.924,2.588,2.734,3.332,9.074,6.114,6.31.356-.481,1.65-4.958,2.394-6.16,1.1-1.713,2.782-2.734,3.882-4.627,2.2-3.936,5.37-8.744,7.376-12.891,1.132-2.4,4.626-12.32.744-14.724A3.817,3.817,0,0,0,202.511,146.244Zm-69.552,32.6a12.266,12.266,0,0,0-4.885.421c-4.27,2.043-6.664,9.435-5.92,13.732.744,4.447,5.92,10.306,7.958,14.243,3.138,6.34,6.47,13.4,10.158,19.742,3.138,4.808,5.176,8.263,9.414,10.126,7.57,2.945,16.984,3.095,23.454-.331,4.076-2.073,6.276-7.542,7.958-13.041a65.759,65.759,0,0,0,1.488-27.494c-1.682-13.221-18.31-12.169-29.018-14.754A147.906,147.906,0,0,0,132.958,178.846Zm418.836,25.571c-6.308.3-7.764,5.228-13.037,10.4-5.888,5.829-17.922,12.53-15.334,22.145-2.2,2.4-.55,2.584-.906,4.627a42.488,42.488,0,0,1-1.1,4.477c.55,2.915,2.912,4.808,2.75,8.233-.194,5.138-4.788,10.306-2.2,15.955.906,2.073,3.688,5.679,6.632,5.319,4.27-.331,2.038-2.043,3.526-5.319,2.394-5.5,7.182-11.148,10.676-16.136.227-.18.227-.33.388-.511a26.221,26.221,0,0,1,1.844-7.9c3.882-10.306,13.328-20.433,24.78-23.167,3.688-2.764,7.02-7.212,4.044-11.328-2.912-4.147-12.164-4.988-16.822-6.19a19.43,19.43,0,0,0-5.241-.6Zm-50.013,1.593-.873.03c-4.432.361-9.058,2.224-11.1,6.19-2.394,4.447.194,8.744,4.432,11.328a4.066,4.066,0,0,0,4.432-.511,17.956,17.956,0,0,0,7.214-12.891c.162-1.352-.938-2.554-2.232-3.245a2.522,2.522,0,0,0-1.876-.9Zm-290.018.21c-4.626,2.734-11.29,3.936-13.134,9.1-2.038,5.649-4.594,18.359.194,22.837,6.664,6.01,9.964-7.9,13.134-11.689C217.133,219.621,215.839,213.071,211.763,206.22ZM15.172,220.463c-3.559-.21-8.346,2.314-9.608,5.168-1.456,3.425-.906,8.564-.906,12.32,2.944.361,7.376-5.8,9.964-7.692,2.588-2.073,7.214-4.627,3.526-8.594A4.363,4.363,0,0,0,15.172,220.463Zm612.58,19.02a12.586,12.586,0,0,0-4.206.391,2.948,2.948,0,0,0-1.1.15,3.992,3.992,0,0,0-2.75,4.657,8.578,8.578,0,0,0,4.238,6.19,6.328,6.328,0,0,0,6.276-.18c3.526-1.893,4.432-7.212,1.294-9.8a7.12,7.12,0,0,0-3.753-1.412ZM8.832,271.033c-4.3,0-7.279,1.322-6.567,7.993.712,6.52,5.694,11.659,8.864,17.338,2.75,4.808,5.176,10.637,8.087,15.114,2.426,3.606.971,3.095,6.308,3.095a11.486,11.486,0,0,0,6.826-1.743c4.626-2.4,8.7-7.542,12.778-10.637,4.594-3.095,11.452-6.52,11.969-12.53C44.74,277.824,34.776,272.836,17.4,271.815c-2.976-.21-6.017-.721-8.573-.751Zm591.52,11.118a4.875,4.875,0,0,0-1.2,0,3.3,3.3,0,0,0-1.456.481c-2.038,1.2-2.2,3.245-1.294,5.138a11.527,11.527,0,0,0,3.688,4.477c1.682,1.2,4.27,1.352,5.726-.18a3.755,3.755,0,0,0-.162-5.319l-1.682-1.532c0-.18-.162-.18-.162-.361l-.582-1.022a3.78,3.78,0,0,0-2.911-1.713Zm-108.7,37.35-.906.03a13.1,13.1,0,0,0-10.934,6.01c-2.394,4.477.194,8.774,4.464,11.328a4.082,4.082,0,0,0,4.432-.511,17.953,17.953,0,0,0,7.182-12.861c.194-1.382-.906-2.584-2.394-3.095a2.522,2.522,0,0,0-1.876-.9ZM59.88,340.835c-4.238.331-2.038,2.043-3.494,5.318-2.394,5.5-7.214,11.178-10.708,16.136-.194.18-.194.361-.388.511a31.264,31.264,0,0,1-1.65,7.9c-3.882,10.307-13.134,20.433-24.748,23.2-3.72,2.734-7.052,7.211-4.076,11.328,2.944,4.117,12.2,4.958,16.822,6.16,10.9,2.584,11.646-3.425,18.116-9.766,5.888-5.859,17.89-12.53,15.3-22.145,2.232-2.4.388-2.584.938-4.657a43.615,43.615,0,0,1,1.1-4.447c-.55-2.915-2.944-4.808-2.75-8.263.162-5.138,4.788-10.276,2.2-15.956-.906-2.073-3.688-5.649-6.664-5.318Zm275.913,20.853c-4.141.18-5.5,8.5-6.729,11.238a26.43,26.43,0,0,1-6.632,9.465c-.388.331-.938.661-1.488,1.2-2.038,1.863-4.788,3.426-5.92,5.829-3.494,7.722,9.8,14.423,16.272,11.328,2.394-1.2,2.75-3.095,5.532-3.786,2.588-.661,5.37.9,7.764.361a37.122,37.122,0,0,0,13.49-5.679,18.473,18.473,0,0,0,7.926-10.637c.582-2.4.971-4.627,1.294-6.881v-1.2c-.55-9.255-8.087-10.637-16.434-8.924-2.75.691-5.176,1.713-8.12,1.022-2.394-.511-4.076-2.915-6.114-3.245a3.37,3.37,0,0,0-.841-.09Zm-33.159,47.776a4.755,4.755,0,0,0-.906.06c-4.432.331-9.058,2.224-11.1,6.16-2.394,4.477.194,8.774,4.464,11.328a4.082,4.082,0,0,0,4.432-.511,17.952,17.952,0,0,0,7.182-12.861,3.336,3.336,0,0,0-2.2-3.275A2.522,2.522,0,0,0,302.634,409.465Zm-15.4,28.185c-3.494-.21-8.314,2.344-9.7,5.168-1.488,3.426-.938,8.594-.938,12.38,2.976.331,7.6-5.679,10-7.752,2.588-2.043,7.182-4.627,3.494-8.564a4.05,4.05,0,0,0-2.847-1.2ZM110.152,459.465a3.742,3.742,0,0,0-3.72,3.455,12.441,12.441,0,0,0,.744,5.138,4.173,4.173,0,0,0,4.626,2.4c1.844-.511,3.332-2.4,2.588-4.3l-.55-1.893V462.92C114.034,461.177,112,459.465,110.152,459.465ZM90.386,485.907c-3.882-.15-7.408,2.584-7.214,6.37.194,3.425,3.882,6.01,7.02,7.031,4.076,1.022,7.926-1.532,7.764-5.679a2.84,2.84,0,0,0-.388-1.352,7.348,7.348,0,0,0-7.182-6.37Zm29.536,22.326c-3.882,0-5.338,5.168-7.926,7.572-4.432,4.3-7.408,7.031-2.588,12.35,2.588,2.915,7.02,7.031,10.708,8.083a24.294,24.294,0,0,0,14.04-.361c2.232-.691,3.882-2.4,5.92-3.425,2.038-1.2,6.276-1.893,7.57-3.786,1.844-2.915-.744-9.435-1.294-12.35-2.2-9.8-18.116-7.211-26.43-8.083ZM403.89,546a3.735,3.735,0,0,0-3.688,3.456,11.929,11.929,0,0,0,.744,5.138,4.007,4.007,0,0,0,4.626,2.4c1.844-.511,3.3-2.4,2.588-4.3l-.582-1.893v-1.352c.194-1.713-1.844-3.456-3.688-3.456ZM113.84,565.414c-14.4,2.223-35.261.871-42.12,9.1-5.37,7.392,3.332,18.359,13.846,26.442h88.7c1.844-14.243-27.368-23.528-44.9-30.739C129.368,570.222,115.684,565.775,113.84,565.414Zm307.228,6.31a3.446,3.446,0,0,0-3.138,2.434c-.55,2.073-.906,4.658.194,6.7a5.37,5.37,0,0,0,4.788,2.764c3.72,0,7.214-3.426,6.114-7.031-.744-2.4-3.138-3.606-5.532-4.3-.388-.18-.55-.361-.938-.361a3.943,3.943,0,0,0-1.488-.21Z" transform="translate(0 0)" fill="#d2d8f4"/>
      </g>
    </g>
  </g>
</svg>
