<?xml version="1.0" encoding="utf-8"?>
<!-- Generator: Adobe Illustrator 27.9.0, SVG Export Plug-In . SVG Version: 6.00 Build 0)  -->
<svg version="1.1" id="Layer_1" xmlns="http://www.w3.org/2000/svg" xmlns:xlink="http://www.w3.org/1999/xlink" x="0px" y="0px"
	 viewBox="0 0 153.6 153.6" style="enable-background:new 0 0 153.6 153.6;" xml:space="preserve">
<style type="text/css">
	.st0{fill:#D3D9F4;}
	.st1{font-family:'NewsGothicStd-Bold';}
	.st2{font-size:17.6472px;}
	.st3{letter-spacing:1;}
</style>
<g transform="matrix(1, 0, 0, 1, -222, -273)">
	<circle id="Ellipse_58-2" class="st0" cx="298.8" cy="349.6" r="75"/>
</g>
<path id="Icon_metro-calendar" d="M68.3,51.3h6.8v6.8h-6.8V51.3z M78.5,51.3h6.8v6.8h-6.8V51.3z M88.7,51.3h6.8v6.8h-6.8V51.3z
	 M58.1,71.7h6.8v6.8h-6.8V71.7z M68.3,71.7h6.8v6.8h-6.8V71.7z M78.5,71.7h6.8v6.8h-6.8V71.7z M68.3,61.5h6.8v6.8h-6.8V61.5z
	 M78.5,61.5h6.8v6.8h-6.8V61.5z M88.7,61.5h6.8v6.8h-6.8V61.5z M58.1,61.5h6.8v6.8h-6.8L58.1,61.5z M95.5,30.9v3.4h-6.8v-3.4H64.9
	v3.4h-6.8v-3.4h-6.8v54.4h51V30.9H95.5z M98.9,81.9H54.7V44.5h44.2V81.9z"/>
<g transform="matrix(1, 0, 0, 1, -222, -273)">
	<text transform="matrix(1 0 0 1 246.053 387.5781)" class="st1 st2 st3">SCHEDULE</text>
</g>
</svg>
