<?xml version="1.0" encoding="UTF-8"?>
<svg id="Layer_1" data-name="Layer 1" xmlns="http://www.w3.org/2000/svg" viewBox="0 0 11.74 148.24">
  <defs>
    <style>
      .cls-1 {
        fill: #7985b9;
        stroke: #7985b9;
        stroke-width: 6px;
      }
    </style>
  </defs>
  <g id="Group_655" data-name="Group 655">
    <path id="Path_2" data-name="Path 2" class="cls-1" d="m3,148.24c0-4.95,5.74-4.95,5.74-9.88s-5.74-4.95-5.74-9.88,5.74-4.95,5.74-9.88-5.74-4.95-5.74-9.88,5.74-4.94,5.74-9.88-5.74-4.94-5.74-9.88,5.74-4.95,5.74-9.89-5.74-4.94-5.74-9.88,5.74-4.94,5.74-9.89-5.74-4.94-5.74-9.89,5.74-4.94,5.74-9.88-5.74-4.95-5.74-9.89,5.74-4.94,5.74-9.89S3,14.84,3,9.89,8.74,4.94,8.74,0"/>
  </g>
</svg>